<?xml version="1.0" encoding="UTF-8" standalone="no"?>
<!DOCTYPE svg PUBLIC "-//W3C//DTD SVG 1.1//EN"
 "http://www.w3.org/Graphics/SVG/1.1/DTD/svg11.dtd">
<!-- Generated by graphviz version 2.30.1 (20180828.1746)
 -->
<!-- Title: UKClearingAdvisor Pages: 1 -->
<svg width="2722pt" height="917pt"
 viewBox="0.00 0.00 2722.00 917.00" xmlns="http://www.w3.org/2000/svg" xmlns:xlink="http://www.w3.org/1999/xlink">
<g id="graph0" class="graph" transform="scale(1 1) rotate(0) translate(4 913)">
<title>UKClearingAdvisor</title>
<polygon fill="white" stroke="white" points="-4,5 -4,-913 2719,-913 2719,5 -4,5"/>
<text text-anchor="middle" x="1357" y="-889" font-family="Helvetica,sans-Serif" font-size="20.00">UK Clearing Advisor &#45; Developer Architecture Reference</text>
<text text-anchor="middle" x="1357" y="-867" font-family="Helvetica,sans-Serif" font-size="20.00">account REPLACE_ACCOUNT_ID &#160;| &#160;app+data eu&#45;west&#45;2 &#160;| &#160;WAF/CloudFront control plane us&#45;east&#45;1</text>
<g id="clust1" class="cluster"><title>cluster_edge</title>
<path fill="#f4f6f9" stroke="#1f3864" d="M224,-277C224,-277 974,-277 974,-277 980,-277 986,-283 986,-289 986,-289 986,-435 986,-435 986,-441 980,-447 974,-447 974,-447 224,-447 224,-447 218,-447 212,-441 212,-435 212,-435 212,-289 212,-289 212,-283 218,-277 224,-277"/>
<text text-anchor="middle" x="599" y="-427" font-family="Helvetica,sans-Serif" font-size="20.00">Edge &#160;[stacks: waf (us&#45;east&#45;1), cdn (eu&#45;west&#45;2), grafana&#45;front (us&#45;east&#45;1)]</text>
</g>
<g id="clust2" class="cluster"><title>cluster_app</title>
<path fill="#edeff4" stroke="#1f3864" d="M1576,-445C1576,-445 2694,-445 2694,-445 2700,-445 2706,-451 2706,-457 2706,-457 2706,-837 2706,-837 2706,-843 2700,-849 2694,-849 2694,-849 1576,-849 1576,-849 1570,-849 1564,-843 1564,-837 1564,-837 1564,-457 1564,-457 1564,-451 1570,-445 1576,-445"/>
<text text-anchor="middle" x="2135" y="-829" font-family="Helvetica,sans-Serif" font-size="20.00">Application &#160;[stacks: api, compute, data (eu&#45;west&#45;2, serverless)]</text>
</g>
<g id="clust3" class="cluster"><title>cluster_ops</title>
<path fill="#edeff4" stroke="#1f3864" d="M1154,-154C1154,-154 2690,-154 2690,-154 2696,-154 2702,-160 2702,-166 2702,-166 2702,-417 2702,-417 2702,-423 2696,-429 2690,-429 2690,-429 1154,-429 1154,-429 1148,-429 1142,-423 1142,-417 1142,-417 1142,-166 1142,-166 1142,-160 1148,-154 1154,-154"/>
<text text-anchor="middle" x="1922" y="-409" font-family="Helvetica,sans-Serif" font-size="20.00">Automation &amp; observability &#160;[stacks: scaling, observability, compute (eu&#45;west&#45;2)]</text>
</g>
<g id="clust4" class="cluster"><title>cluster_graf</title>
<path fill="#edeff4" stroke="#1f3864" d="M701,-8C701,-8 1785,-8 1785,-8 1791,-8 1797,-14 1797,-20 1797,-20 1797,-134 1797,-134 1797,-140 1791,-146 1785,-146 1785,-146 701,-146 701,-146 695,-146 689,-140 689,-134 689,-134 689,-20 689,-20 689,-14 695,-8 701,-8"/>
<text text-anchor="middle" x="1243" y="-126" font-family="Helvetica,sans-Serif" font-size="20.00">Grafana analytics &#160;[stack: grafana (eu&#45;west&#45;2)]</text>
</g>
<!-- UKU -->
<g id="node1" class="node"><title>UKU</title>
<ellipse fill="#fff2cc" stroke="#1f3864" cx="70" cy="-385" rx="70.0071" ry="19.6"/>
<text text-anchor="middle" x="70" y="-387.8" font-family="Helvetica,sans-Serif" font-size="9.00">UK students</text>
<text text-anchor="middle" x="70" y="-377.8" font-family="Helvetica,sans-Serif" font-size="9.00">(browser / mobile)</text>
</g>
<!-- WAF1 -->
<g id="node3" class="node"><title>WAF1</title>
<polygon fill="#fbe5e1" stroke="#1f3864" points="562.5,-409 353.5,-409 353.5,-361 562.5,-361 562.5,-409"/>
<text text-anchor="middle" x="458" y="-397.8" font-family="Helvetica,sans-Serif" font-size="9.00">WAF clearing&#45;advisor&#45;webacl &#160;[waf]</text>
<text text-anchor="middle" x="458" y="-387.8" font-family="Helvetica,sans-Serif" font-size="9.00">P1 GeoBlock !GB | P2 rate 1000/5min</text>
<text text-anchor="middle" x="458" y="-377.8" font-family="Helvetica,sans-Serif" font-size="9.00">P3 BotControl | P4 CommonRuleSet(count)</text>
<text text-anchor="middle" x="458" y="-367.8" font-family="Helvetica,sans-Serif" font-size="9.00">P5 KnownBadInputs | P6 SQLi</text>
</g>
<!-- UKU&#45;&gt;WAF1 -->
<g id="edge1" class="edge"><title>UKU&#45;&gt;WAF1</title>
<path fill="none" stroke="#5b6577" d="M140.009,-385C196.422,-385 277.343,-385 343.304,-385"/>
<polygon fill="#5b6577" stroke="#5b6577" points="343.339,-388.5 353.339,-385 343.339,-381.5 343.339,-388.5"/>
<text text-anchor="middle" x="181" y="-387.6" font-family="Helvetica,sans-Serif" font-size="8.00">HTTPS 443</text>
</g>
<!-- ADM -->
<g id="node2" class="node"><title>ADM</title>
<ellipse fill="#fff2cc" stroke="#1f3864" cx="70" cy="-177" rx="68.6788" ry="19.6"/>
<text text-anchor="middle" x="70" y="-179.8" font-family="Helvetica,sans-Serif" font-size="9.00">Admin / analyst</text>
<text text-anchor="middle" x="70" y="-169.8" font-family="Helvetica,sans-Serif" font-size="9.00">(UK or allowed IP)</text>
</g>
<!-- WAF2 -->
<g id="node5" class="node"><title>WAF2</title>
<polygon fill="#fbe5e1" stroke="#1f3864" points="594.5,-343 321.5,-343 321.5,-285 594.5,-285 594.5,-343"/>
<text text-anchor="middle" x="458" y="-331.8" font-family="Helvetica,sans-Serif" font-size="9.00">WAF grafana&#45;webacl &#160;[grafana&#45;front]</text>
<text text-anchor="middle" x="458" y="-321.8" font-family="Helvetica,sans-Serif" font-size="9.00">default BLOCK</text>
<text text-anchor="middle" x="458" y="-311.8" font-family="Helvetica,sans-Serif" font-size="9.00">P1 allow geo GB | P2 allow IPSet</text>
<text text-anchor="middle" x="458" y="-301.8" font-family="Helvetica,sans-Serif" font-size="9.00">grafana&#45;allowed&#45;ips</text>
<text text-anchor="middle" x="458" y="-291.8" font-family="Helvetica,sans-Serif" font-size="9.00">(REPLACE_ALLOWED_CIDR, REPLACE_ALLOWED_CIDR_2)</text>
</g>
<!-- ADM&#45;&gt;WAF2 -->
<g id="edge29" class="edge"><title>ADM&#45;&gt;WAF2</title>
<path fill="none" stroke="#5b6577" d="M113.413,-192.053C173.729,-213.461 285.803,-253.238 365.543,-281.54"/>
<polygon fill="#5b6577" stroke="#5b6577" points="364.506,-284.886 375.101,-284.932 366.848,-278.289 364.506,-284.886"/>
<text text-anchor="middle" x="181" y="-224.6" font-family="Helvetica,sans-Serif" font-size="8.00">HTTPS 443</text>
</g>
<!-- COG -->
<g id="node25" class="node"><title>COG</title>
<polygon fill="#fce1e4" stroke="#1f3864" points="1768,-108 1624,-108 1624,-70 1768,-70 1768,-108"/>
<text text-anchor="middle" x="1696" y="-96.8" font-family="Helvetica,sans-Serif" font-size="9.00">Cognito user pool</text>
<text text-anchor="middle" x="1696" y="-86.8" font-family="Helvetica,sans-Serif" font-size="9.00">REPLACE_USER_POOL_ID</text>
<text text-anchor="middle" x="1696" y="-76.8" font-family="Helvetica,sans-Serif" font-size="9.00">client 6025... &#160;(OAuth login)</text>
</g>
<!-- ADM&#45;&gt;COG -->
<g id="edge32" class="edge"><title>ADM&#45;&gt;COG</title>
<path fill="none" stroke="#5b6577" stroke-dasharray="5,2" d="M122.464,-164.491C196.123,-147.712 336.083,-120 457,-120 457,-120 457,-120 1285,-120 1399.27,-120 1530.94,-107.879 1613.57,-98.7961"/>
<polygon fill="#5b6577" stroke="#5b6577" points="1614.1,-102.259 1623.65,-97.6764 1613.32,-95.302 1614.1,-102.259"/>
<text text-anchor="middle" x="774" y="-122.6" font-family="Helvetica,sans-Serif" font-size="8.00">OAuth redirect</text>
</g>
<!-- CF1 -->
<g id="node4" class="node"><title>CF1</title>
<polygon fill="#ddebf7" stroke="#1f3864" points="877,-409 671,-409 671,-361 877,-361 877,-409"/>
<text text-anchor="middle" x="774" y="-397.8" font-family="Helvetica,sans-Serif" font-size="9.00">CloudFront app &#160;[cdn]</text>
<text text-anchor="middle" x="774" y="-387.8" font-family="Helvetica,sans-Serif" font-size="9.00">REPLACE_APP_DIST_ID</text>
<text text-anchor="middle" x="774" y="-377.8" font-family="Helvetica,sans-Serif" font-size="9.00">REPLACE_APP_CF.cloudfront.net</text>
<text text-anchor="middle" x="774" y="-367.8" font-family="Helvetica,sans-Serif" font-size="9.00">geo whitelist GB | 403&#45;&gt;geo&#45;blocked.html</text>
</g>
<!-- WAF1&#45;&gt;CF1 -->
<g id="edge2" class="edge"><title>WAF1&#45;&gt;CF1</title>
<path fill="none" stroke="#5b6577" stroke-dasharray="5,2" d="M562.686,-385C597.43,-385 636.128,-385 670.761,-385"/>
<text text-anchor="middle" x="633" y="-387.6" font-family="Helvetica,sans-Serif" font-size="8.00">associate</text>
</g>
<!-- S3SITE -->
<g id="node16" class="node"><title>S3SITE</title>
<polygon fill="#e2efda" stroke="#1f3864" points="1809,-643 1583,-643 1583,-605 1809,-605 1809,-643"/>
<text text-anchor="middle" x="1696" y="-631.8" font-family="Helvetica,sans-Serif" font-size="9.00">S3 static site &#160;[cdn]</text>
<text text-anchor="middle" x="1696" y="-621.8" font-family="Helvetica,sans-Serif" font-size="9.00">uk&#45;clearing&#45;advisor&#45;site&#45;REPLACE_ACCOUNT_ID</text>
<text text-anchor="middle" x="1696" y="-611.8" font-family="Helvetica,sans-Serif" font-size="9.00">private + OAC (vanilla frontend)</text>
</g>
<!-- CF1&#45;&gt;S3SITE -->
<g id="edge3" class="edge"><title>CF1&#45;&gt;S3SITE</title>
<path fill="none" stroke="#5b6577" d="M826.424,-409.052C896.384,-440.868 1026.13,-496.68 1142,-529 1287.5,-569.586 1459.64,-595.861 1572.76,-610.27"/>
<polygon fill="#5b6577" stroke="#5b6577" points="1572.47,-613.762 1582.83,-611.542 1573.35,-606.817 1572.47,-613.762"/>
<text text-anchor="middle" x="1284" y="-588.6" font-family="Helvetica,sans-Serif" font-size="8.00">default | CachingOptimized</text>
</g>
<!-- APIGW -->
<g id="node7" class="node"><title>APIGW</title>
<polygon fill="#eaf0fb" stroke="#1f3864" points="1796,-587 1596,-587 1596,-509 1796,-509 1796,-587"/>
<text text-anchor="middle" x="1696" y="-575.8" font-family="Helvetica,sans-Serif" font-size="9.00">API Gateway HTTP API &#160;[api]</text>
<text text-anchor="middle" x="1696" y="-565.8" font-family="Helvetica,sans-Serif" font-size="9.00">id REPLACE_API_ID &#160;| &#160;stage $default</text>
<text text-anchor="middle" x="1696" y="-555.8" font-family="Helvetica,sans-Serif" font-size="9.00">POST /search &#160;GET /subjects /universities</text>
<text text-anchor="middle" x="1696" y="-545.8" font-family="Helvetica,sans-Serif" font-size="9.00">/scholarships /export /health</text>
<text text-anchor="middle" x="1696" y="-535.8" font-family="Helvetica,sans-Serif" font-size="9.00">throttle burst100/rate50 (baseline)</text>
<text text-anchor="middle" x="1696" y="-525.8" font-family="Helvetica,sans-Serif" font-size="9.00">access logs 7d</text>
<text text-anchor="middle" x="1696" y="-515.8" font-family="Helvetica,sans-Serif" font-size="9.00">CORS locked to app CloudFront origin</text>
</g>
<!-- CF1&#45;&gt;APIGW -->
<g id="edge4" class="edge"><title>CF1&#45;&gt;APIGW</title>
<path fill="none" stroke="#5b6577" d="M877.414,-403.145C1052.21,-434.114 1406.56,-496.896 1585.85,-528.661"/>
<polygon fill="#5b6577" stroke="#5b6577" points="1585.37,-532.131 1595.83,-530.429 1586.59,-525.238 1585.37,-532.131"/>
<text text-anchor="middle" x="1284" y="-518.6" font-family="Helvetica,sans-Serif" font-size="8.00">/api/* | CachingDisabled</text>
<text text-anchor="middle" x="1284" y="-509.6" font-family="Helvetica,sans-Serif" font-size="8.00">ApiGeoOriginRequestPolicy (CloudFront&#45;Viewer + device)</text>
<text text-anchor="middle" x="1284" y="-500.6" font-family="Helvetica,sans-Serif" font-size="8.00">ApiRewriteFunction strips /api</text>
</g>
<!-- CF2 -->
<g id="node6" class="node"><title>CF2</title>
<polygon fill="#ddebf7" stroke="#1f3864" points="866.5,-334 681.5,-334 681.5,-286 866.5,-286 866.5,-334"/>
<text text-anchor="middle" x="774" y="-322.8" font-family="Helvetica,sans-Serif" font-size="9.00">CloudFront Grafana &#160;[grafana&#45;front]</text>
<text text-anchor="middle" x="774" y="-312.8" font-family="Helvetica,sans-Serif" font-size="9.00">REPLACE_GRAFANA_DIST_ID</text>
<text text-anchor="middle" x="774" y="-302.8" font-family="Helvetica,sans-Serif" font-size="9.00">REPLACE_GRAFANA_CF.cloudfront.net</text>
<text text-anchor="middle" x="774" y="-292.8" font-family="Helvetica,sans-Serif" font-size="9.00">trusted default cert</text>
</g>
<!-- WAF2&#45;&gt;CF2 -->
<g id="edge30" class="edge"><title>WAF2&#45;&gt;CF2</title>
<path fill="none" stroke="#5b6577" stroke-dasharray="5,2" d="M594.899,-312.269C624.07,-311.897 654.231,-311.513 681.255,-311.169"/>
<text text-anchor="middle" x="633" y="-314.6" font-family="Helvetica,sans-Serif" font-size="8.00">associate</text>
</g>
<!-- EC2 -->
<g id="node24" class="node"><title>EC2</title>
<polygon fill="#daeef3" stroke="#1f3864" points="1410,-92 1158,-92 1158,-34 1410,-34 1410,-92"/>
<text text-anchor="middle" x="1284" y="-80.8" font-family="Helvetica,sans-Serif" font-size="9.00">EC2 t3.small REPLACE_INSTANCE_ID</text>
<text text-anchor="middle" x="1284" y="-70.8" font-family="Helvetica,sans-Serif" font-size="9.00">nginx :80 (X&#45;Origin&#45;Verify) &#45;&gt; Grafana :3000</text>
<text text-anchor="middle" x="1284" y="-60.8" font-family="Helvetica,sans-Serif" font-size="9.00">EIP REPLACE_GRAFANA_EIP | SSM</text>
<text text-anchor="middle" x="1284" y="-50.8" font-family="Helvetica,sans-Serif" font-size="9.00">SG REPLACE_SG_ID:</text>
<text text-anchor="middle" x="1284" y="-40.8" font-family="Helvetica,sans-Serif" font-size="9.00">80&lt;&#45;CloudFront PL, 443&lt;&#45;REPLACE_ALLOWED_CIDR</text>
</g>
<!-- CF2&#45;&gt;EC2 -->
<g id="edge31" class="edge"><title>CF2&#45;&gt;EC2</title>
<path fill="none" stroke="#5b6577" d="M824.634,-285.867C915.756,-241.561 1109.89,-147.169 1213.87,-96.6143"/>
<polygon fill="#5b6577" stroke="#5b6577" points="1215.57,-99.6797 1223.03,-92.1593 1212.5,-93.3844 1215.57,-99.6797"/>
<text text-anchor="middle" x="1064" y="-204.6" font-family="Helvetica,sans-Serif" font-size="8.00">HTTP 80 + X&#45;Origin&#45;Verify secret</text>
</g>
<!-- SC -->
<g id="node8" class="node"><title>SC</title>
<polygon fill="#ddebf7" stroke="#1f3864" points="2206.5,-511 2029.5,-511 2029.5,-453 2206.5,-453 2206.5,-511"/>
<text text-anchor="middle" x="2118" y="-499.8" font-family="Helvetica,sans-Serif" font-size="9.00">Lambda SearchCourses &#160;[compute]</text>
<text text-anchor="middle" x="2118" y="-489.8" font-family="Helvetica,sans-Serif" font-size="9.00">node22 512MB/10s, X&#45;Ray</text>
<text text-anchor="middle" x="2118" y="-479.8" font-family="Helvetica,sans-Serif" font-size="9.00">alias &#39;live&#39; &#45;&gt; latest version</text>
<text text-anchor="middle" x="2118" y="-469.8" font-family="Helvetica,sans-Serif" font-size="9.00">checks X&#45;Origin&#45;Verify secret</text>
<text text-anchor="middle" x="2118" y="-459.8" font-family="Helvetica,sans-Serif" font-size="9.00">role: SearchCoursesRole</text>
</g>
<!-- APIGW&#45;&gt;SC -->
<g id="edge5" class="edge"><title>APIGW&#45;&gt;SC</title>
<path fill="none" stroke="#5b6577" d="M1796,-532.442C1863.36,-521.858 1952.1,-507.913 2019.2,-497.368"/>
<polygon fill="#5b6577" stroke="#5b6577" points="2020.02,-500.782 2029.36,-495.772 2018.94,-493.867 2020.02,-500.782"/>
<text text-anchor="middle" x="1908" y="-527.6" font-family="Helvetica,sans-Serif" font-size="8.00">POST /search</text>
</g>
<!-- GS -->
<g id="node9" class="node"><title>GS</title>
<polygon fill="#ddebf7" stroke="#1f3864" points="2200.5,-679 2035.5,-679 2035.5,-641 2200.5,-641 2200.5,-679"/>
<text text-anchor="middle" x="2118" y="-667.8" font-family="Helvetica,sans-Serif" font-size="9.00">Lambda GetSubjects &#160;[compute]</text>
<text text-anchor="middle" x="2118" y="-657.8" font-family="Helvetica,sans-Serif" font-size="9.00">128MB/5s</text>
<text text-anchor="middle" x="2118" y="-647.8" font-family="Helvetica,sans-Serif" font-size="9.00">checks X&#45;Origin&#45;Verify</text>
</g>
<!-- APIGW&#45;&gt;GS -->
<g id="edge6" class="edge"><title>APIGW&#45;&gt;GS</title>
<path fill="none" stroke="#5b6577" d="M1796.01,-577.064C1854.1,-593.8 1929.01,-614.849 1996,-632 2005.48,-634.427 2015.4,-636.873 2025.3,-639.255"/>
<polygon fill="#5b6577" stroke="#5b6577" points="2024.65,-642.697 2035.19,-641.613 2026.27,-635.888 2024.65,-642.697"/>
</g>
<!-- GU -->
<g id="node10" class="node"><title>GU</title>
<polygon fill="#ddebf7" stroke="#1f3864" points="2207,-567 2029,-567 2029,-529 2207,-529 2207,-567"/>
<text text-anchor="middle" x="2118" y="-555.8" font-family="Helvetica,sans-Serif" font-size="9.00">Lambda GetUniversities &#160;[compute]</text>
<text text-anchor="middle" x="2118" y="-545.8" font-family="Helvetica,sans-Serif" font-size="9.00">256MB/10s</text>
<text text-anchor="middle" x="2118" y="-535.8" font-family="Helvetica,sans-Serif" font-size="9.00">checks X&#45;Origin&#45;Verify</text>
</g>
<!-- APIGW&#45;&gt;GU -->
<g id="edge7" class="edge"><title>APIGW&#45;&gt;GU</title>
<path fill="none" stroke="#5b6577" d="M1796,-548C1863.13,-548 1951.49,-548 2018.51,-548"/>
<polygon fill="#5b6577" stroke="#5b6577" points="2018.66,-551.5 2028.66,-548 2018.66,-544.5 2018.66,-551.5"/>
</g>
<!-- GSCH -->
<g id="node11" class="node"><title>GSCH</title>
<polygon fill="#ddebf7" stroke="#1f3864" points="2209.5,-623 2026.5,-623 2026.5,-585 2209.5,-585 2209.5,-623"/>
<text text-anchor="middle" x="2118" y="-611.8" font-family="Helvetica,sans-Serif" font-size="9.00">Lambda GetScholarships &#160;[compute]</text>
<text text-anchor="middle" x="2118" y="-601.8" font-family="Helvetica,sans-Serif" font-size="9.00">256MB/10s (GSI SubjectIndex)</text>
<text text-anchor="middle" x="2118" y="-591.8" font-family="Helvetica,sans-Serif" font-size="9.00">checks X&#45;Origin&#45;Verify</text>
</g>
<!-- APIGW&#45;&gt;GSCH -->
<g id="edge8" class="edge"><title>APIGW&#45;&gt;GSCH</title>
<path fill="none" stroke="#5b6577" d="M1796,-561.2C1862.32,-570.043 1949.37,-581.649 2016.08,-590.544"/>
<polygon fill="#5b6577" stroke="#5b6577" points="2015.82,-594.04 2026.19,-591.892 2016.74,-587.101 2015.82,-594.04"/>
</g>
<!-- GE -->
<g id="node12" class="node"><title>GE</title>
<polygon fill="#ddebf7" stroke="#1f3864" points="2209,-745 2027,-745 2027,-697 2209,-697 2209,-745"/>
<text text-anchor="middle" x="2118" y="-733.8" font-family="Helvetica,sans-Serif" font-size="9.00">Lambda GenerateExport &#160;[compute]</text>
<text text-anchor="middle" x="2118" y="-723.8" font-family="Helvetica,sans-Serif" font-size="9.00">1024MB/30s, X&#45;Ray</text>
<text text-anchor="middle" x="2118" y="-713.8" font-family="Helvetica,sans-Serif" font-size="9.00">zero&#45;dep xlsx+pdf</text>
<text text-anchor="middle" x="2118" y="-703.8" font-family="Helvetica,sans-Serif" font-size="9.00">checks X&#45;Origin&#45;Verify</text>
</g>
<!-- APIGW&#45;&gt;GE -->
<g id="edge9" class="edge"><title>APIGW&#45;&gt;GE</title>
<path fill="none" stroke="#5b6577" d="M1796.19,-583.091C1804.43,-587.084 1812.47,-591.392 1820,-596 1829.13,-601.589 1829.09,-606.067 1838,-612 1902.86,-655.191 1923,-660.747 1996,-688 2002.8,-690.539 2009.88,-692.977 2017.06,-695.296"/>
<polygon fill="#5b6577" stroke="#5b6577" points="2016.29,-698.724 2026.88,-698.384 2018.39,-692.046 2016.29,-698.724"/>
</g>
<!-- HLTH -->
<g id="node13" class="node"><title>HLTH</title>
<polygon fill="#ddebf7" stroke="#1f3864" points="2207.5,-811 2028.5,-811 2028.5,-763 2207.5,-763 2207.5,-811"/>
<text text-anchor="middle" x="2118" y="-799.8" font-family="Helvetica,sans-Serif" font-size="9.00">Lambda Health &#160;[compute]</text>
<text text-anchor="middle" x="2118" y="-789.8" font-family="Helvetica,sans-Serif" font-size="9.00">128MB/5s</text>
<text text-anchor="middle" x="2118" y="-779.8" font-family="Helvetica,sans-Serif" font-size="9.00">no secret check (external monitors)</text>
<text text-anchor="middle" x="2118" y="-769.8" font-family="Helvetica,sans-Serif" font-size="9.00">DynamoDB connectivity check</text>
</g>
<!-- APIGW&#45;&gt;HLTH -->
<g id="edge10" class="edge"><title>APIGW&#45;&gt;HLTH</title>
<path fill="none" stroke="#5b6577" d="M1796.09,-577.157C1804.89,-582.445 1813.07,-588.672 1820,-596 1837.67,-614.687 1822.34,-630.598 1838,-651 1889.04,-717.494 1919.53,-719.668 1996,-754 2003.27,-757.265 2010.94,-760.271 2018.74,-763.026"/>
<polygon fill="#5b6577" stroke="#5b6577" points="2017.71,-766.372 2028.3,-766.262 2019.95,-759.741 2017.71,-766.372"/>
<text text-anchor="middle" x="1908" y="-746.6" font-family="Helvetica,sans-Serif" font-size="8.00">GET /health</text>
</g>
<!-- DDB -->
<g id="node14" class="node"><title>DDB</title>
<polygon fill="#e4dfec" stroke="#1f3864" points="2675,-607 2481,-607 2477,-603 2477,-549 2671,-549 2675,-553 2675,-607"/>
<polyline fill="none" stroke="#1f3864" points="2671,-603 2477,-603 "/>
<polyline fill="none" stroke="#1f3864" points="2671,-603 2671,-549 "/>
<polyline fill="none" stroke="#1f3864" points="2671,-603 2675,-607 "/>
<text text-anchor="middle" x="2576" y="-595.8" font-family="Helvetica,sans-Serif" font-size="9.00">DynamoDB 8 tables &#160;[data]</text>
<text text-anchor="middle" x="2576" y="-585.8" font-family="Helvetica,sans-Serif" font-size="9.00">UniversityContacts, SubjectDefaults,</text>
<text text-anchor="middle" x="2576" y="-575.8" font-family="Helvetica,sans-Serif" font-size="9.00">ClearingCache, QueryCache, RateLimits,</text>
<text text-anchor="middle" x="2576" y="-565.8" font-family="Helvetica,sans-Serif" font-size="9.00">ChangeLog, CUGRankings, Scholarships</text>
<text text-anchor="middle" x="2576" y="-555.8" font-family="Helvetica,sans-Serif" font-size="9.00">on&#45;demand | TTL | PITR | SSE</text>
</g>
<!-- SC&#45;&gt;DDB -->
<g id="edge11" class="edge"><title>SC&#45;&gt;DDB</title>
<path fill="none" stroke="#5b6577" d="M2206.71,-493.936C2270.68,-503.369 2359.24,-517.939 2436,-536 2448.61,-538.968 2461.76,-542.437 2474.73,-546.086"/>
<polygon fill="#5b6577" stroke="#5b6577" points="2474.02,-549.523 2484.6,-548.907 2475.94,-542.793 2474.02,-549.523"/>
<text text-anchor="middle" x="2347" y="-547.6" font-family="Helvetica,sans-Serif" font-size="8.00">read Contacts/SubjectDefaults/CUG</text>
<text text-anchor="middle" x="2347" y="-538.6" font-family="Helvetica,sans-Serif" font-size="8.00">rw ClearingCache/QueryCache/RateLimits</text>
</g>
<!-- CW -->
<g id="node22" class="node"><title>CW</title>
<polygon fill="#fce4d6" stroke="#1f3864" points="2240,-326 1996,-326 1996,-278 2240,-278 2240,-326"/>
<text text-anchor="middle" x="2118" y="-314.8" font-family="Helvetica,sans-Serif" font-size="9.00">CloudWatch &#160;[observability]</text>
<text text-anchor="middle" x="2118" y="-304.8" font-family="Helvetica,sans-Serif" font-size="9.00">ns ClearingAdvisor | Logs Insights</text>
<text text-anchor="middle" x="2118" y="-294.8" font-family="Helvetica,sans-Serif" font-size="9.00">8 alarms (incl. SearchDuration p99) | dashboards:</text>
<text text-anchor="middle" x="2118" y="-284.8" font-family="Helvetica,sans-Serif" font-size="9.00">Operations, ResultsDay</text>
</g>
<!-- SC&#45;&gt;CW -->
<g id="edge25" class="edge"><title>SC&#45;&gt;CW</title>
<path fill="none" stroke="#5b6577" d="M2029.24,-484.046C1982.6,-479.958 1928.95,-466.024 1898.5,-427 1862.56,-380.949 1923.45,-348.979 1990.13,-328.905"/>
<polygon fill="#5b6577" stroke="#5b6577" points="1991.37,-332.187 2000,-326.029 1989.42,-325.466 1991.37,-332.187"/>
<text text-anchor="middle" x="1908" y="-420.6" font-family="Helvetica,sans-Serif" font-size="8.00">PutMetricData + logs</text>
<text text-anchor="middle" x="1908" y="-411.6" font-family="Helvetica,sans-Serif" font-size="8.00">(geo, device, UA)</text>
</g>
<!-- GU&#45;&gt;DDB -->
<g id="edge12" class="edge"><title>GU&#45;&gt;DDB</title>
<path fill="none" stroke="#5b6577" d="M2207.19,-553.802C2281.3,-558.678 2387.52,-565.666 2466.77,-570.88"/>
<polygon fill="#5b6577" stroke="#5b6577" points="2466.58,-574.374 2476.79,-571.539 2467.04,-567.39 2466.58,-574.374"/>
</g>
<!-- GSCH&#45;&gt;DDB -->
<g id="edge13" class="edge"><title>GSCH&#45;&gt;DDB</title>
<path fill="none" stroke="#5b6577" d="M2209.64,-598.832C2283.46,-594.623 2387.92,-588.667 2466.25,-584.201"/>
<polygon fill="#5b6577" stroke="#5b6577" points="2466.85,-587.672 2476.64,-583.608 2466.45,-580.683 2466.85,-587.672"/>
</g>
<!-- GE&#45;&gt;DDB -->
<g id="edge14" class="edge"><title>GE&#45;&gt;DDB</title>
<path fill="none" stroke="#5b6577" d="M2209.01,-696.999C2219.48,-694.045 2229.99,-691.006 2240,-688 2321.86,-663.414 2414.09,-632.923 2481.02,-610.283"/>
<polygon fill="#5b6577" stroke="#5b6577" points="2482.35,-613.525 2490.7,-607.001 2480.11,-606.895 2482.35,-613.525"/>
</g>
<!-- EXP -->
<g id="node15" class="node"><title>EXP</title>
<polygon fill="#e2efda" stroke="#1f3864" points="2698,-740 2454,-740 2454,-702 2698,-702 2698,-740"/>
<text text-anchor="middle" x="2576" y="-728.8" font-family="Helvetica,sans-Serif" font-size="9.00">S3 exports &#160;[cdn]</text>
<text text-anchor="middle" x="2576" y="-718.8" font-family="Helvetica,sans-Serif" font-size="9.00">uk&#45;clearing&#45;advisor&#45;exports&#45;REPLACE_ACCOUNT_ID</text>
<text text-anchor="middle" x="2576" y="-708.8" font-family="Helvetica,sans-Serif" font-size="9.00">1&#45;day lifecycle</text>
</g>
<!-- GE&#45;&gt;EXP -->
<g id="edge16" class="edge"><title>GE&#45;&gt;EXP</title>
<path fill="none" stroke="#5b6577" d="M2209.09,-721C2276.04,-721 2368.39,-721 2443.56,-721"/>
<polygon fill="#5b6577" stroke="#5b6577" points="2443.58,-724.5 2453.58,-721 2443.58,-717.5 2443.58,-724.5"/>
<text text-anchor="middle" x="2347" y="-723.6" font-family="Helvetica,sans-Serif" font-size="8.00">PutObject + presigned GET (1h)</text>
</g>
<!-- GE&#45;&gt;CW -->
<g id="edge26" class="edge"><title>GE&#45;&gt;CW</title>
<path fill="none" stroke="#5b6577" d="M2026.85,-727.233C1984,-724.841 1936.23,-713.432 1908,-679 1815.01,-565.576 1816.31,-463.475 1908,-349 1927.28,-324.924 1955.97,-311.489 1985.99,-304.336"/>
<polygon fill="#5b6577" stroke="#5b6577" points="1986.74,-307.755 1995.78,-302.228 1985.26,-300.912 1986.74,-307.755"/>
</g>
<!-- HLTH&#45;&gt;DDB -->
<g id="edge15" class="edge"><title>HLTH&#45;&gt;DDB</title>
<path fill="none" stroke="#5b6577" d="M2207.62,-793.76C2276.68,-794.343 2371.38,-784.294 2436,-734 2451.7,-721.777 2442.56,-709.286 2454,-693 2474.97,-663.146 2504.57,-634.847 2529.25,-613.791"/>
<polygon fill="#5b6577" stroke="#5b6577" points="2531.66,-616.33 2537.07,-607.217 2527.16,-610.972 2531.66,-616.33"/>
<text text-anchor="middle" x="2347" y="-794.6" font-family="Helvetica,sans-Serif" font-size="8.00">GetItem (liveness check)</text>
</g>
<!-- ART -->
<g id="node17" class="node"><title>ART</title>
<polygon fill="#e2efda" stroke="#1f3864" points="1819.5,-491 1572.5,-491 1572.5,-453 1819.5,-453 1819.5,-491"/>
<text text-anchor="middle" x="1696" y="-479.8" font-family="Helvetica,sans-Serif" font-size="9.00">S3 artifacts</text>
<text text-anchor="middle" x="1696" y="-469.8" font-family="Helvetica,sans-Serif" font-size="9.00">uk&#45;clearing&#45;advisor&#45;artifacts&#45;REPLACE_ACCOUNT_ID</text>
<text text-anchor="middle" x="1696" y="-459.8" font-family="Helvetica,sans-Serif" font-size="9.00">Lambda zips + provisioning</text>
</g>
<!-- ART&#45;&gt;SC -->
<g id="edge17" class="edge"><title>ART&#45;&gt;SC</title>
<path fill="none" stroke="#5b6577" stroke-dasharray="5,2" d="M1819.61,-474.919C1886.8,-476.519 1968.52,-478.465 2029.28,-479.911"/>
<text text-anchor="middle" x="1908" y="-481.6" font-family="Helvetica,sans-Serif" font-size="8.00">code (S3)</text>
</g>
<!-- EBS -->
<g id="node18" class="node"><title>EBS</title>
<polygon fill="#eaf0fb" stroke="#1f3864" points="1401.5,-375 1166.5,-375 1166.5,-307 1401.5,-307 1401.5,-375"/>
<text text-anchor="middle" x="1284" y="-363.8" font-family="Helvetica,sans-Serif" font-size="9.00">EventBridge &#160;[scaling/compute]</text>
<text text-anchor="middle" x="1284" y="-353.8" font-family="Helvetica,sans-Serif" font-size="9.00">ScaleUp cron(0 4 13 8 ? 2026)</text>
<text text-anchor="middle" x="1284" y="-343.8" font-family="Helvetica,sans-Serif" font-size="9.00">ScaleDown cron(0 20 13 8 ? 2026)</text>
<text text-anchor="middle" x="1284" y="-333.8" font-family="Helvetica,sans-Serif" font-size="9.00">DailyScraper cron(0 7 * * ? *)</text>
<text text-anchor="middle" x="1284" y="-323.8" font-family="Helvetica,sans-Serif" font-size="9.00">ResultsDayScraper cron(0/15 4&#45;20 13 8 ? 2026)</text>
<text text-anchor="middle" x="1284" y="-313.8" font-family="Helvetica,sans-Serif" font-size="9.00">WarmUp cron(0 5 13 8 ? 2026)</text>
</g>
<!-- SCHED -->
<g id="node19" class="node"><title>SCHED</title>
<polygon fill="#ddebf7" stroke="#1f3864" points="1794.5,-334 1597.5,-334 1597.5,-298 1794.5,-298 1794.5,-334"/>
<text text-anchor="middle" x="1696" y="-318.8" font-family="Helvetica,sans-Serif" font-size="9.00">Lambda ScheduleManager &#160;[scaling]</text>
<text text-anchor="middle" x="1696" y="-308.8" font-family="Helvetica,sans-Serif" font-size="9.00">PEAK=100 | UP 400/800 | BASE 50/100</text>
</g>
<!-- EBS&#45;&gt;SCHED -->
<g id="edge18" class="edge"><title>EBS&#45;&gt;SCHED</title>
<path fill="none" stroke="#5b6577" d="M1401.73,-367.495C1449.21,-374.55 1504.45,-378.004 1554,-369 1586.8,-363.039 1621.89,-349.874 1648.87,-338.157"/>
<polygon fill="#5b6577" stroke="#5b6577" points="1650.33,-341.338 1658.05,-334.087 1647.49,-334.938 1650.33,-341.338"/>
</g>
<!-- DS -->
<g id="node20" class="node"><title>DS</title>
<polygon fill="#ddebf7" stroke="#1f3864" points="1820,-226 1572,-226 1572,-178 1820,-178 1820,-226"/>
<text text-anchor="middle" x="1696" y="-214.8" font-family="Helvetica,sans-Serif" font-size="9.00">Lambda DailyScraper &#160;[compute]</text>
<text text-anchor="middle" x="1696" y="-204.8" font-family="Helvetica,sans-Serif" font-size="9.00">512MB/300s, global fetch</text>
<text text-anchor="middle" x="1696" y="-194.8" font-family="Helvetica,sans-Serif" font-size="9.00">tightened open/closed&#45;phrase heuristic</text>
<text text-anchor="middle" x="1696" y="-184.8" font-family="Helvetica,sans-Serif" font-size="9.00">writes possibleStatusChange+lastAutomatedCheck</text>
</g>
<!-- EBS&#45;&gt;DS -->
<g id="edge19" class="edge"><title>EBS&#45;&gt;DS</title>
<path fill="none" stroke="#5b6577" d="M1367.13,-306.908C1422.24,-284.75 1496.78,-256.157 1564,-235 1570.77,-232.87 1577.76,-230.783 1584.84,-228.757"/>
<polygon fill="#5b6577" stroke="#5b6577" points="1585.85,-232.11 1594.53,-226.036 1583.96,-225.371 1585.85,-232.11"/>
</g>
<!-- WU -->
<g id="node21" class="node"><title>WU</title>
<polygon fill="#ddebf7" stroke="#1f3864" points="1786.5,-280 1605.5,-280 1605.5,-244 1786.5,-244 1786.5,-280"/>
<text text-anchor="middle" x="1696" y="-264.8" font-family="Helvetica,sans-Serif" font-size="9.00">Lambda WarmUp &#160;[compute]</text>
<text text-anchor="middle" x="1696" y="-254.8" font-family="Helvetica,sans-Serif" font-size="9.00">invokes SearchCourses __WARMUP__</text>
</g>
<!-- EBS&#45;&gt;WU -->
<g id="edge20" class="edge"><title>EBS&#45;&gt;WU</title>
<path fill="none" stroke="#5b6577" d="M1401.52,-359.542C1410.46,-360.527 1419.37,-361.369 1428,-362 1455.93,-364.04 1532.9,-380.406 1554,-362 1578.68,-340.473 1541.63,-312.92 1564,-289 1572.7,-279.698 1583.68,-273.143 1595.57,-268.584"/>
<polygon fill="#5b6577" stroke="#5b6577" points="1596.9,-271.83 1605.27,-265.341 1594.68,-265.191 1596.9,-271.83"/>
</g>
<!-- SCHED&#45;&gt;SC -->
<g id="edge21" class="edge"><title>SCHED&#45;&gt;SC</title>
<path fill="none" stroke="#5b6577" d="M1714.21,-334.379C1739.03,-359.679 1787.45,-404.741 1838,-428 1869.81,-442.638 1952.14,-457.647 2019.17,-468.114"/>
<polygon fill="#5b6577" stroke="#5b6577" points="2018.95,-471.621 2029.37,-469.69 2020.02,-464.703 2018.95,-471.621"/>
<text text-anchor="middle" x="1908" y="-464.6" font-family="Helvetica,sans-Serif" font-size="8.00">PutProvisionedConcurrency(100)</text>
</g>
<!-- SCHED&#45;&gt;APIGW -->
<g id="edge22" class="edge"><title>SCHED&#45;&gt;APIGW</title>
<path fill="none" stroke="#5b6577" d="M1597.46,-303.874C1549.53,-303.88 1495.4,-313.791 1463,-351.5 1410.98,-412.042 1500.29,-451.921 1564,-500 1571,-505.283 1578.64,-510.028 1586.6,-514.284"/>
<polygon fill="#5b6577" stroke="#5b6577" points="1585.2,-517.499 1595.7,-518.882 1588.36,-511.25 1585.2,-517.499"/>
<text text-anchor="middle" x="1491" y="-354.1" font-family="Helvetica,sans-Serif" font-size="8.00">UpdateStage throttle 400/800</text>
</g>
<!-- DS&#45;&gt;DDB -->
<g id="edge24" class="edge"><title>DS&#45;&gt;DDB</title>
<path fill="none" stroke="#5b6577" d="M1803.84,-226.054C1809.46,-228.729 1814.89,-231.701 1820,-235 1830.61,-241.856 1828.11,-249.137 1838,-257 1941.48,-339.292 2311.71,-440.972 2436,-499 2464.24,-512.182 2494.44,-528.995 2519.45,-543.72"/>
<polygon fill="#5b6577" stroke="#5b6577" points="2517.68,-546.741 2528.07,-548.831 2521.26,-540.72 2517.68,-546.741"/>
<text text-anchor="middle" x="2118" y="-426.6" font-family="Helvetica,sans-Serif" font-size="8.00">scan+update Contacts, write ChangeLog</text>
</g>
<!-- DS&#45;&gt;CW -->
<g id="edge27" class="edge"><title>DS&#45;&gt;CW</title>
<path fill="none" stroke="#5b6577" d="M1797.87,-226.016C1860.66,-240.967 1941.48,-260.21 2006.08,-275.589"/>
<polygon fill="#5b6577" stroke="#5b6577" points="2005.35,-279.015 2015.89,-277.926 2006.97,-272.205 2005.35,-279.015"/>
</g>
<!-- WU&#45;&gt;SC -->
<g id="edge23" class="edge"><title>WU&#45;&gt;SC</title>
<path fill="none" stroke="#5b6577" d="M1786.63,-268.894C1799.08,-273.278 1810.75,-279.701 1820,-289 1846.93,-316.065 1810.36,-346.661 1838,-373 1883.65,-416.499 1927.44,-358.322 1978,-396 1992.66,-406.927 1982.64,-420.516 1996,-433 2003.27,-439.788 2011.6,-445.689 2020.41,-450.807"/>
<polygon fill="#5b6577" stroke="#5b6577" points="2018.91,-453.974 2029.37,-455.668 2022.25,-447.821 2018.91,-453.974"/>
<text text-anchor="middle" x="1908" y="-398.6" font-family="Helvetica,sans-Serif" font-size="8.00">warm invoke</text>
</g>
<!-- SNS -->
<g id="node23" class="node"><title>SNS</title>
<polygon fill="#fce4d6" stroke="#1f3864" points="2678,-320 2474,-320 2474,-284 2678,-284 2678,-320"/>
<text text-anchor="middle" x="2576" y="-304.8" font-family="Helvetica,sans-Serif" font-size="9.00">SNS ClearingAdvisorAlerts &#160;[observability]</text>
<text text-anchor="middle" x="2576" y="-294.8" font-family="Helvetica,sans-Serif" font-size="9.00">email: your&#45;email@example.com</text>
</g>
<!-- CW&#45;&gt;SNS -->
<g id="edge28" class="edge"><title>CW&#45;&gt;SNS</title>
<path fill="none" stroke="#5b6577" d="M2240,-302C2309.4,-302 2395.89,-302 2463.61,-302"/>
<polygon fill="#5b6577" stroke="#5b6577" points="2463.88,-305.5 2473.88,-302 2463.88,-298.5 2463.88,-305.5"/>
<text text-anchor="middle" x="2347" y="-304.6" font-family="Helvetica,sans-Serif" font-size="8.00">alarm actions</text>
</g>
<!-- EC2&#45;&gt;COG -->
<g id="edge33" class="edge"><title>EC2&#45;&gt;COG</title>
<path fill="none" stroke="#5b6577" d="M1410.24,-70.9421C1476.33,-75.1333 1555.53,-80.1554 1613.6,-83.8383"/>
<polygon fill="#5b6577" stroke="#5b6577" points="1613.63,-87.3467 1623.83,-84.4867 1614.07,-80.3607 1613.63,-87.3467"/>
<text text-anchor="middle" x="1491" y="-82.6" font-family="Helvetica,sans-Serif" font-size="8.00">generic_oauth</text>
</g>
<!-- ROLE -->
<g id="node26" class="node"><title>ROLE</title>
<polygon fill="#fce1e4" stroke="#1f3864" points="1789,-52 1603,-52 1603,-16 1789,-16 1789,-52"/>
<text text-anchor="middle" x="1696" y="-36.8" font-family="Helvetica,sans-Serif" font-size="9.00">IAM instance role</text>
<text text-anchor="middle" x="1696" y="-26.8" font-family="Helvetica,sans-Serif" font-size="9.00">CloudWatchReadOnly + Logs Insights</text>
</g>
<!-- EC2&#45;&gt;ROLE -->
<g id="edge34" class="edge"><title>EC2&#45;&gt;ROLE</title>
<path fill="none" stroke="#5b6577" d="M1410.24,-54.1415C1472.29,-49.7524 1545.9,-44.5462 1602.73,-40.5265"/>
</g>
<!-- ROLE&#45;&gt;CW -->
<g id="edge35" class="edge"><title>ROLE&#45;&gt;CW</title>
<path fill="none" stroke="#5b6577" d="M1789.28,-49.2925C1799.89,-52.4927 1810.35,-56.3511 1820,-61 1931.76,-114.832 2038.57,-218.434 2088.13,-270.501"/>
<polygon fill="#5b6577" stroke="#5b6577" points="2085.62,-272.931 2095.03,-277.798 2090.7,-268.125 2085.62,-272.931"/>
<text text-anchor="middle" x="1908" y="-167.6" font-family="Helvetica,sans-Serif" font-size="8.00">GetMetricData + Logs Insights</text>
</g>
<!-- SM -->
<g id="node27" class="node"><title>SM</title>
<polygon fill="#fce1e4" stroke="#1f3864" points="850.5,-81 697.5,-81 697.5,-45 850.5,-45 850.5,-81"/>
<text text-anchor="middle" x="774" y="-65.8" font-family="Helvetica,sans-Serif" font-size="9.00">Secrets Manager</text>
<text text-anchor="middle" x="774" y="-55.8" font-family="Helvetica,sans-Serif" font-size="9.00">ClearingAdvisor&#45;GrafanaAdmin</text>
</g>
<!-- SM&#45;&gt;EC2 -->
<g id="edge36" class="edge"><title>SM&#45;&gt;EC2</title>
<path fill="none" stroke="#5b6577" stroke-dasharray="5,2" d="M850.504,-63C931.487,-63 1061.42,-63 1157.76,-63"/>
<text text-anchor="middle" x="1064" y="-65.6" font-family="Helvetica,sans-Serif" font-size="8.00">admin pw at boot</text>
</g>
</g>
</svg>
