<?xml version="1.0" encoding="UTF-8" standalone="no"?>
<!DOCTYPE svg PUBLIC "-//W3C//DTD SVG 1.1//EN"
 "http://www.w3.org/Graphics/SVG/1.1/DTD/svg11.dtd">
<!-- Generated by graphviz version 2.30.1 (20180828.1746)
 -->
<!-- Title: UKClearingAdvisor Pages: 1 -->
<svg width="2656pt" height="742pt"
 viewBox="0.00 0.00 2656.00 742.00" xmlns="http://www.w3.org/2000/svg" xmlns:xlink="http://www.w3.org/1999/xlink">
<g id="graph0" class="graph" transform="scale(1 1) rotate(0) translate(4 738)">
<title>UKClearingAdvisor</title>
<polygon fill="white" stroke="white" points="-4,5 -4,-738 2653,-738 2653,5 -4,5"/>
<text text-anchor="middle" x="1324" y="-714" font-family="Helvetica,sans-Serif" font-size="20.00">UK Clearing Advisor &#45; Developer Architecture Reference</text>
<text text-anchor="middle" x="1324" y="-692" font-family="Helvetica,sans-Serif" font-size="20.00">account REPLACE_ACCOUNT_ID &#160;| &#160;app+data eu&#45;west&#45;2 &#160;| &#160;WAF/CloudFront control plane us&#45;east&#45;1</text>
<g id="clust1" class="cluster"><title>cluster_edge</title>
<path fill="#f4f6f9" stroke="#1f3864" d="M224,-225C224,-225 974,-225 974,-225 980,-225 986,-231 986,-237 986,-237 986,-383 986,-383 986,-389 980,-395 974,-395 974,-395 224,-395 224,-395 218,-395 212,-389 212,-383 212,-383 212,-237 212,-237 212,-231 218,-225 224,-225"/>
<text text-anchor="middle" x="599" y="-375" font-family="Helvetica,sans-Serif" font-size="20.00">Edge &#160;[stacks: waf (us&#45;east&#45;1), cdn (eu&#45;west&#45;2), grafana&#45;front (us&#45;east&#45;1)]</text>
</g>
<g id="clust2" class="cluster"><title>cluster_app</title>
<path fill="#edeff4" stroke="#1f3864" d="M1570,-352C1570,-352 2628,-352 2628,-352 2634,-352 2640,-358 2640,-364 2640,-364 2640,-662 2640,-662 2640,-668 2634,-674 2628,-674 2628,-674 1570,-674 1570,-674 1564,-674 1558,-668 1558,-662 1558,-662 1558,-364 1558,-364 1558,-358 1564,-352 1570,-352"/>
<text text-anchor="middle" x="2099" y="-654" font-family="Helvetica,sans-Serif" font-size="20.00">Application &#160;[stacks: api, compute, data (eu&#45;west&#45;2, serverless)]</text>
</g>
<g id="clust3" class="cluster"><title>cluster_ops</title>
<path fill="#edeff4" stroke="#1f3864" d="M1194,-154C1194,-154 2608,-154 2608,-154 2614,-154 2620,-160 2620,-166 2620,-166 2620,-332 2620,-332 2620,-338 2614,-344 2608,-344 2608,-344 1194,-344 1194,-344 1188,-344 1182,-338 1182,-332 1182,-332 1182,-166 1182,-166 1182,-160 1188,-154 1194,-154"/>
<text text-anchor="middle" x="1901" y="-324" font-family="Helvetica,sans-Serif" font-size="20.00">Automation &amp; observability &#160;[stacks: scaling, observability, compute (eu&#45;west&#45;2)]</text>
</g>
<g id="clust4" class="cluster"><title>cluster_graf</title>
<path fill="#edeff4" stroke="#1f3864" d="M701,-8C701,-8 1779,-8 1779,-8 1785,-8 1791,-14 1791,-20 1791,-20 1791,-134 1791,-134 1791,-140 1785,-146 1779,-146 1779,-146 701,-146 701,-146 695,-146 689,-140 689,-134 689,-134 689,-20 689,-20 689,-14 695,-8 701,-8"/>
<text text-anchor="middle" x="1240" y="-126" font-family="Helvetica,sans-Serif" font-size="20.00">Grafana analytics &#160;[stack: grafana (eu&#45;west&#45;2)]</text>
</g>
<!-- UKU -->
<g id="node1" class="node"><title>UKU</title>
<ellipse fill="#fff2cc" stroke="#1f3864" cx="70" cy="-333" rx="70.0071" ry="19.6"/>
<text text-anchor="middle" x="70" y="-335.8" font-family="Helvetica,sans-Serif" font-size="9.00">UK students</text>
<text text-anchor="middle" x="70" y="-325.8" font-family="Helvetica,sans-Serif" font-size="9.00">(browser / mobile)</text>
</g>
<!-- WAF1 -->
<g id="node3" class="node"><title>WAF1</title>
<polygon fill="#fbe5e1" stroke="#1f3864" points="562.5,-357 353.5,-357 353.5,-309 562.5,-309 562.5,-357"/>
<text text-anchor="middle" x="458" y="-345.8" font-family="Helvetica,sans-Serif" font-size="9.00">WAF clearing&#45;advisor&#45;webacl &#160;[waf]</text>
<text text-anchor="middle" x="458" y="-335.8" font-family="Helvetica,sans-Serif" font-size="9.00">P1 GeoBlock !GB | P2 rate 1000/5min</text>
<text text-anchor="middle" x="458" y="-325.8" font-family="Helvetica,sans-Serif" font-size="9.00">P3 BotControl | P4 CommonRuleSet(count)</text>
<text text-anchor="middle" x="458" y="-315.8" font-family="Helvetica,sans-Serif" font-size="9.00">P5 KnownBadInputs | P6 SQLi</text>
</g>
<!-- UKU&#45;&gt;WAF1 -->
<g id="edge1" class="edge"><title>UKU&#45;&gt;WAF1</title>
<path fill="none" stroke="#5b6577" d="M140.009,-333C196.422,-333 277.343,-333 343.304,-333"/>
<polygon fill="#5b6577" stroke="#5b6577" points="343.339,-336.5 353.339,-333 343.339,-329.5 343.339,-336.5"/>
<text text-anchor="middle" x="181" y="-335.6" font-family="Helvetica,sans-Serif" font-size="8.00">HTTPS 443</text>
</g>
<!-- ADM -->
<g id="node2" class="node"><title>ADM</title>
<ellipse fill="#fff2cc" stroke="#1f3864" cx="70" cy="-176" rx="68.6788" ry="19.6"/>
<text text-anchor="middle" x="70" y="-178.8" font-family="Helvetica,sans-Serif" font-size="9.00">Admin / analyst</text>
<text text-anchor="middle" x="70" y="-168.8" font-family="Helvetica,sans-Serif" font-size="9.00">(UK or allowed IP)</text>
</g>
<!-- WAF2 -->
<g id="node5" class="node"><title>WAF2</title>
<polygon fill="#fbe5e1" stroke="#1f3864" points="594.5,-291 321.5,-291 321.5,-233 594.5,-233 594.5,-291"/>
<text text-anchor="middle" x="458" y="-279.8" font-family="Helvetica,sans-Serif" font-size="9.00">WAF grafana&#45;webacl &#160;[grafana&#45;front]</text>
<text text-anchor="middle" x="458" y="-269.8" font-family="Helvetica,sans-Serif" font-size="9.00">default BLOCK</text>
<text text-anchor="middle" x="458" y="-259.8" font-family="Helvetica,sans-Serif" font-size="9.00">P1 allow geo GB | P2 allow IPSet</text>
<text text-anchor="middle" x="458" y="-249.8" font-family="Helvetica,sans-Serif" font-size="9.00">grafana&#45;allowed&#45;ips</text>
<text text-anchor="middle" x="458" y="-239.8" font-family="Helvetica,sans-Serif" font-size="9.00">(REPLACE_ALLOWED_CIDR, REPLACE_ALLOWED_CIDR_2)</text>
</g>
<!-- ADM&#45;&gt;WAF2 -->
<g id="edge27" class="edge"><title>ADM&#45;&gt;WAF2</title>
<path fill="none" stroke="#5b6577" d="M124.266,-187.868C173.843,-198.913 249.931,-215.866 316.84,-230.773"/>
<polygon fill="#5b6577" stroke="#5b6577" points="316.119,-234.198 326.641,-232.956 317.642,-227.365 316.119,-234.198"/>
<text text-anchor="middle" x="181" y="-206.6" font-family="Helvetica,sans-Serif" font-size="8.00">HTTPS 443</text>
</g>
<!-- COG -->
<g id="node24" class="node"><title>COG</title>
<polygon fill="#fce1e4" stroke="#1f3864" points="1762,-108 1618,-108 1618,-70 1762,-70 1762,-108"/>
<text text-anchor="middle" x="1690" y="-96.8" font-family="Helvetica,sans-Serif" font-size="9.00">Cognito user pool</text>
<text text-anchor="middle" x="1690" y="-86.8" font-family="Helvetica,sans-Serif" font-size="9.00">REPLACE_USER_POOL_ID</text>
<text text-anchor="middle" x="1690" y="-76.8" font-family="Helvetica,sans-Serif" font-size="9.00">client 6025... &#160;(OAuth login)</text>
</g>
<!-- ADM&#45;&gt;COG -->
<g id="edge30" class="edge"><title>ADM&#45;&gt;COG</title>
<path fill="none" stroke="#5b6577" stroke-dasharray="5,2" d="M129.333,-166.164C204.752,-154.32 340.277,-136 457,-136 457,-136 457,-136 1279,-136 1393.69,-136 1525.25,-117.624 1607.75,-103.852"/>
<polygon fill="#5b6577" stroke="#5b6577" points="1608.53,-107.27 1617.81,-102.155 1607.37,-100.367 1608.53,-107.27"/>
<text text-anchor="middle" x="774" y="-138.6" font-family="Helvetica,sans-Serif" font-size="8.00">OAuth redirect</text>
</g>
<!-- CF1 -->
<g id="node4" class="node"><title>CF1</title>
<polygon fill="#ddebf7" stroke="#1f3864" points="877,-357 671,-357 671,-309 877,-309 877,-357"/>
<text text-anchor="middle" x="774" y="-345.8" font-family="Helvetica,sans-Serif" font-size="9.00">CloudFront app &#160;[cdn]</text>
<text text-anchor="middle" x="774" y="-335.8" font-family="Helvetica,sans-Serif" font-size="9.00">REPLACE_APP_DIST_ID</text>
<text text-anchor="middle" x="774" y="-325.8" font-family="Helvetica,sans-Serif" font-size="9.00">REPLACE_APP_CF.cloudfront.net</text>
<text text-anchor="middle" x="774" y="-315.8" font-family="Helvetica,sans-Serif" font-size="9.00">geo whitelist GB | 403&#45;&gt;geo&#45;blocked.html</text>
</g>
<!-- WAF1&#45;&gt;CF1 -->
<g id="edge2" class="edge"><title>WAF1&#45;&gt;CF1</title>
<path fill="none" stroke="#5b6577" stroke-dasharray="5,2" d="M562.686,-333C597.43,-333 636.128,-333 670.761,-333"/>
<text text-anchor="middle" x="633" y="-335.6" font-family="Helvetica,sans-Serif" font-size="8.00">associate</text>
</g>
<!-- S3SITE -->
<g id="node15" class="node"><title>S3SITE</title>
<polygon fill="#e2efda" stroke="#1f3864" points="1803,-454 1577,-454 1577,-416 1803,-416 1803,-454"/>
<text text-anchor="middle" x="1690" y="-442.8" font-family="Helvetica,sans-Serif" font-size="9.00">S3 static site &#160;[cdn]</text>
<text text-anchor="middle" x="1690" y="-432.8" font-family="Helvetica,sans-Serif" font-size="9.00">uk&#45;clearing&#45;advisor&#45;site&#45;REPLACE_ACCOUNT_ID</text>
<text text-anchor="middle" x="1690" y="-422.8" font-family="Helvetica,sans-Serif" font-size="9.00">private + OAC (vanilla frontend)</text>
</g>
<!-- CF1&#45;&gt;S3SITE -->
<g id="edge3" class="edge"><title>CF1&#45;&gt;S3SITE</title>
<path fill="none" stroke="#5b6577" d="M877.187,-344.404C1046.57,-363.307 1384.83,-401.056 1566.66,-421.347"/>
<polygon fill="#5b6577" stroke="#5b6577" points="1566.48,-424.848 1576.8,-422.479 1567.25,-417.892 1566.48,-424.848"/>
<text text-anchor="middle" x="1278" y="-406.6" font-family="Helvetica,sans-Serif" font-size="8.00">default | CachingOptimized</text>
</g>
<!-- APIGW -->
<g id="node7" class="node"><title>APIGW</title>
<polygon fill="#eaf0fb" stroke="#1f3864" points="1790,-540 1590,-540 1590,-472 1790,-472 1790,-540"/>
<text text-anchor="middle" x="1690" y="-528.8" font-family="Helvetica,sans-Serif" font-size="9.00">API Gateway HTTP API &#160;[api]</text>
<text text-anchor="middle" x="1690" y="-518.8" font-family="Helvetica,sans-Serif" font-size="9.00">id REPLACE_API_ID &#160;| &#160;stage $default</text>
<text text-anchor="middle" x="1690" y="-508.8" font-family="Helvetica,sans-Serif" font-size="9.00">POST /search &#160;GET /subjects /universities</text>
<text text-anchor="middle" x="1690" y="-498.8" font-family="Helvetica,sans-Serif" font-size="9.00">/scholarships /export /health</text>
<text text-anchor="middle" x="1690" y="-488.8" font-family="Helvetica,sans-Serif" font-size="9.00">throttle burst100/rate50 (baseline)</text>
<text text-anchor="middle" x="1690" y="-478.8" font-family="Helvetica,sans-Serif" font-size="9.00">access logs 7d</text>
</g>
<!-- CF1&#45;&gt;APIGW -->
<g id="edge4" class="edge"><title>CF1&#45;&gt;APIGW</title>
<path fill="none" stroke="#5b6577" d="M875.892,-357.063C951.636,-374.742 1058.03,-398.759 1152,-417 1299.54,-445.64 1471.01,-473.043 1579.74,-489.694"/>
<polygon fill="#5b6577" stroke="#5b6577" points="1579.32,-493.171 1589.73,-491.221 1580.38,-486.251 1579.32,-493.171"/>
<text text-anchor="middle" x="1278" y="-480.6" font-family="Helvetica,sans-Serif" font-size="8.00">/api/* | CachingDisabled</text>
<text text-anchor="middle" x="1278" y="-471.6" font-family="Helvetica,sans-Serif" font-size="8.00">ApiGeoOriginRequestPolicy (CloudFront&#45;Viewer + device)</text>
<text text-anchor="middle" x="1278" y="-462.6" font-family="Helvetica,sans-Serif" font-size="8.00">ApiRewriteFunction strips /api</text>
</g>
<!-- CF2 -->
<g id="node6" class="node"><title>CF2</title>
<polygon fill="#ddebf7" stroke="#1f3864" points="866.5,-282 681.5,-282 681.5,-234 866.5,-234 866.5,-282"/>
<text text-anchor="middle" x="774" y="-270.8" font-family="Helvetica,sans-Serif" font-size="9.00">CloudFront Grafana &#160;[grafana&#45;front]</text>
<text text-anchor="middle" x="774" y="-260.8" font-family="Helvetica,sans-Serif" font-size="9.00">REPLACE_GRAFANA_DIST_ID</text>
<text text-anchor="middle" x="774" y="-250.8" font-family="Helvetica,sans-Serif" font-size="9.00">REPLACE_GRAFANA_CF.cloudfront.net</text>
<text text-anchor="middle" x="774" y="-240.8" font-family="Helvetica,sans-Serif" font-size="9.00">trusted default cert</text>
</g>
<!-- WAF2&#45;&gt;CF2 -->
<g id="edge28" class="edge"><title>WAF2&#45;&gt;CF2</title>
<path fill="none" stroke="#5b6577" stroke-dasharray="5,2" d="M594.899,-260.269C624.07,-259.897 654.231,-259.513 681.255,-259.169"/>
<text text-anchor="middle" x="633" y="-262.6" font-family="Helvetica,sans-Serif" font-size="8.00">associate</text>
</g>
<!-- EC2 -->
<g id="node23" class="node"><title>EC2</title>
<polygon fill="#daeef3" stroke="#1f3864" points="1404,-108 1152,-108 1152,-50 1404,-50 1404,-108"/>
<text text-anchor="middle" x="1278" y="-96.8" font-family="Helvetica,sans-Serif" font-size="9.00">EC2 t3.small REPLACE_INSTANCE_ID</text>
<text text-anchor="middle" x="1278" y="-86.8" font-family="Helvetica,sans-Serif" font-size="9.00">nginx :80 (X&#45;Origin&#45;Verify) &#45;&gt; Grafana :3000</text>
<text text-anchor="middle" x="1278" y="-76.8" font-family="Helvetica,sans-Serif" font-size="9.00">EIP REPLACE_GRAFANA_EIP | SSM</text>
<text text-anchor="middle" x="1278" y="-66.8" font-family="Helvetica,sans-Serif" font-size="9.00">SG REPLACE_SG_ID:</text>
<text text-anchor="middle" x="1278" y="-56.8" font-family="Helvetica,sans-Serif" font-size="9.00">80&lt;&#45;CloudFront PL, 443&lt;&#45;REPLACE_ALLOWED_CIDR</text>
</g>
<!-- CF2&#45;&gt;EC2 -->
<g id="edge29" class="edge"><title>CF2&#45;&gt;EC2</title>
<path fill="none" stroke="#5b6577" d="M842.441,-233.952C930.944,-202.394 1086.62,-146.885 1185.64,-111.578"/>
<polygon fill="#5b6577" stroke="#5b6577" points="1187.09,-114.775 1195.34,-108.119 1184.74,-108.181 1187.09,-114.775"/>
<text text-anchor="middle" x="1064" y="-182.6" font-family="Helvetica,sans-Serif" font-size="8.00">HTTP 80 + X&#45;Origin&#45;Verify secret</text>
</g>
<!-- SC -->
<g id="node8" class="node"><title>SC</title>
<polygon fill="#ddebf7" stroke="#1f3864" points="2171,-418 1993,-418 1993,-360 2171,-360 2171,-418"/>
<text text-anchor="middle" x="2082" y="-406.8" font-family="Helvetica,sans-Serif" font-size="9.00">Lambda SearchCourses &#160;[compute]</text>
<text text-anchor="middle" x="2082" y="-396.8" font-family="Helvetica,sans-Serif" font-size="9.00">node22 512MB/10s, X&#45;Ray</text>
<text text-anchor="middle" x="2082" y="-386.8" font-family="Helvetica,sans-Serif" font-size="9.00">alias &#39;live&#39; &#45;&gt; version V4</text>
<text text-anchor="middle" x="2082" y="-376.8" font-family="Helvetica,sans-Serif" font-size="9.00">code: lambda/SearchCourses&#45;v4.zip</text>
<text text-anchor="middle" x="2082" y="-366.8" font-family="Helvetica,sans-Serif" font-size="9.00">role: SearchCoursesRole</text>
</g>
<!-- APIGW&#45;&gt;SC -->
<g id="edge5" class="edge"><title>APIGW&#45;&gt;SC</title>
<path fill="none" stroke="#5b6577" d="M1789.46,-471.918C1797.78,-468.937 1806.04,-465.938 1814,-463 1822.05,-460.028 1823.84,-458.675 1832,-456 1881.24,-439.852 1936.87,-424.607 1983.04,-412.751"/>
<polygon fill="#5b6577" stroke="#5b6577" points="1983.91,-416.139 1992.74,-410.274 1982.18,-409.357 1983.91,-416.139"/>
<text text-anchor="middle" x="1902" y="-458.6" font-family="Helvetica,sans-Serif" font-size="8.00">POST /search</text>
</g>
<!-- GS -->
<g id="node9" class="node"><title>GS</title>
<polygon fill="#ddebf7" stroke="#1f3864" points="2164.5,-526 1999.5,-526 1999.5,-490 2164.5,-490 2164.5,-526"/>
<text text-anchor="middle" x="2082" y="-510.8" font-family="Helvetica,sans-Serif" font-size="9.00">Lambda GetSubjects &#160;[compute]</text>
<text text-anchor="middle" x="2082" y="-500.8" font-family="Helvetica,sans-Serif" font-size="9.00">128MB/5s</text>
</g>
<!-- APIGW&#45;&gt;GS -->
<g id="edge6" class="edge"><title>APIGW&#45;&gt;GS</title>
<path fill="none" stroke="#5b6577" d="M1790.17,-506.509C1851.4,-506.823 1929.4,-507.223 1989.2,-507.529"/>
<polygon fill="#5b6577" stroke="#5b6577" points="1989.38,-511.03 1999.39,-507.582 1989.41,-504.03 1989.38,-511.03"/>
</g>
<!-- GU -->
<g id="node10" class="node"><title>GU</title>
<polygon fill="#ddebf7" stroke="#1f3864" points="2171,-580 1993,-580 1993,-544 2171,-544 2171,-580"/>
<text text-anchor="middle" x="2082" y="-564.8" font-family="Helvetica,sans-Serif" font-size="9.00">Lambda GetUniversities &#160;[compute]</text>
<text text-anchor="middle" x="2082" y="-554.8" font-family="Helvetica,sans-Serif" font-size="9.00">256MB/10s</text>
</g>
<!-- APIGW&#45;&gt;GU -->
<g id="edge7" class="edge"><title>APIGW&#45;&gt;GU</title>
<path fill="none" stroke="#5b6577" d="M1790.17,-520.24C1849.26,-528.725 1923.98,-539.454 1982.89,-547.912"/>
<polygon fill="#5b6577" stroke="#5b6577" points="1982.55,-551.399 1992.94,-549.356 1983.54,-544.47 1982.55,-551.399"/>
</g>
<!-- GSCH -->
<g id="node11" class="node"><title>GSCH</title>
<polygon fill="#ddebf7" stroke="#1f3864" points="2173.5,-472 1990.5,-472 1990.5,-436 2173.5,-436 2173.5,-472"/>
<text text-anchor="middle" x="2082" y="-456.8" font-family="Helvetica,sans-Serif" font-size="9.00">Lambda GetScholarships &#160;[compute]</text>
<text text-anchor="middle" x="2082" y="-446.8" font-family="Helvetica,sans-Serif" font-size="9.00">256MB/10s (GSI SubjectIndex)</text>
</g>
<!-- APIGW&#45;&gt;GSCH -->
<g id="edge8" class="edge"><title>APIGW&#45;&gt;GSCH</title>
<path fill="none" stroke="#5b6577" d="M1790.17,-492.777C1848.41,-485.012 1921.83,-475.223 1980.32,-467.423"/>
<polygon fill="#5b6577" stroke="#5b6577" points="1980.87,-470.881 1990.32,-466.09 1979.95,-463.943 1980.87,-470.881"/>
</g>
<!-- GE -->
<g id="node12" class="node"><title>GE</title>
<polygon fill="#ddebf7" stroke="#1f3864" points="2173,-636 1991,-636 1991,-598 2173,-598 2173,-636"/>
<text text-anchor="middle" x="2082" y="-624.8" font-family="Helvetica,sans-Serif" font-size="9.00">Lambda GenerateExport &#160;[compute]</text>
<text text-anchor="middle" x="2082" y="-614.8" font-family="Helvetica,sans-Serif" font-size="9.00">1024MB/30s, X&#45;Ray</text>
<text text-anchor="middle" x="2082" y="-604.8" font-family="Helvetica,sans-Serif" font-size="9.00">zero&#45;dep xlsx+pdf</text>
</g>
<!-- APIGW&#45;&gt;GE -->
<g id="edge9" class="edge"><title>APIGW&#45;&gt;GE</title>
<path fill="none" stroke="#5b6577" d="M1790.17,-534.225C1856.65,-553.147 1942.91,-577.699 2004.18,-595.137"/>
<polygon fill="#5b6577" stroke="#5b6577" points="2003.6,-598.61 2014.18,-597.981 2005.52,-591.877 2003.6,-598.61"/>
</g>
<!-- DDB -->
<g id="node13" class="node"><title>DDB</title>
<polygon fill="#e4dfec" stroke="#1f3864" points="2609,-483 2415,-483 2411,-479 2411,-425 2605,-425 2609,-429 2609,-483"/>
<polyline fill="none" stroke="#1f3864" points="2605,-479 2411,-479 "/>
<polyline fill="none" stroke="#1f3864" points="2605,-479 2605,-425 "/>
<polyline fill="none" stroke="#1f3864" points="2605,-479 2609,-483 "/>
<text text-anchor="middle" x="2510" y="-471.8" font-family="Helvetica,sans-Serif" font-size="9.00">DynamoDB 8 tables &#160;[data]</text>
<text text-anchor="middle" x="2510" y="-461.8" font-family="Helvetica,sans-Serif" font-size="9.00">UniversityContacts, SubjectDefaults,</text>
<text text-anchor="middle" x="2510" y="-451.8" font-family="Helvetica,sans-Serif" font-size="9.00">ClearingCache, QueryCache, RateLimits,</text>
<text text-anchor="middle" x="2510" y="-441.8" font-family="Helvetica,sans-Serif" font-size="9.00">ChangeLog, CUGRankings, Scholarships</text>
<text text-anchor="middle" x="2510" y="-431.8" font-family="Helvetica,sans-Serif" font-size="9.00">on&#45;demand | TTL | PITR | SSE</text>
</g>
<!-- SC&#45;&gt;DDB -->
<g id="edge10" class="edge"><title>SC&#45;&gt;DDB</title>
<path fill="none" stroke="#5b6577" d="M2171.27,-402.033C2228.05,-410.464 2303.4,-421.74 2370,-432 2379.97,-433.536 2390.35,-435.15 2400.73,-436.775"/>
<polygon fill="#5b6577" stroke="#5b6577" points="2400.26,-440.243 2410.68,-438.335 2401.34,-433.328 2400.26,-440.243"/>
<text text-anchor="middle" x="2281" y="-443.6" font-family="Helvetica,sans-Serif" font-size="8.00">read Contacts/SubjectDefaults/CUG</text>
<text text-anchor="middle" x="2281" y="-434.6" font-family="Helvetica,sans-Serif" font-size="8.00">rw ClearingCache/QueryCache/RateLimits</text>
</g>
<!-- CW -->
<g id="node21" class="node"><title>CW</title>
<polygon fill="#fce4d6" stroke="#1f3864" points="2166.5,-233 1997.5,-233 1997.5,-185 2166.5,-185 2166.5,-233"/>
<text text-anchor="middle" x="2082" y="-221.8" font-family="Helvetica,sans-Serif" font-size="9.00">CloudWatch &#160;[observability]</text>
<text text-anchor="middle" x="2082" y="-211.8" font-family="Helvetica,sans-Serif" font-size="9.00">ns ClearingAdvisor | Logs Insights</text>
<text text-anchor="middle" x="2082" y="-201.8" font-family="Helvetica,sans-Serif" font-size="9.00">7 alarms | dashboards:</text>
<text text-anchor="middle" x="2082" y="-191.8" font-family="Helvetica,sans-Serif" font-size="9.00">Operations, ResultsDay</text>
</g>
<!-- SC&#45;&gt;CW -->
<g id="edge23" class="edge"><title>SC&#45;&gt;CW</title>
<path fill="none" stroke="#5b6577" d="M1992.82,-374.314C1927.31,-359.353 1854.93,-331.462 1887.5,-284 1910.24,-250.854 1949.87,-232.352 1987.44,-222.026"/>
<polygon fill="#5b6577" stroke="#5b6577" points="1988.64,-225.332 1997.45,-219.449 1986.89,-218.553 1988.64,-225.332"/>
<text text-anchor="middle" x="1902" y="-295.6" font-family="Helvetica,sans-Serif" font-size="8.00">PutMetricData + logs</text>
<text text-anchor="middle" x="1902" y="-286.6" font-family="Helvetica,sans-Serif" font-size="8.00">(geo, device, UA)</text>
</g>
<!-- GU&#45;&gt;DDB -->
<g id="edge11" class="edge"><title>GU&#45;&gt;DDB</title>
<path fill="none" stroke="#5b6577" d="M2154.3,-543.923C2221.65,-526.849 2323.59,-501.006 2400.93,-481.399"/>
<polygon fill="#5b6577" stroke="#5b6577" points="2401.88,-484.769 2410.71,-478.919 2400.16,-477.983 2401.88,-484.769"/>
</g>
<!-- GSCH&#45;&gt;DDB -->
<g id="edge12" class="edge"><title>GSCH&#45;&gt;DDB</title>
<path fill="none" stroke="#5b6577" d="M2173.6,-454C2239.97,-454 2330.32,-454 2400.53,-454"/>
<polygon fill="#5b6577" stroke="#5b6577" points="2400.73,-457.5 2410.73,-454 2400.73,-450.5 2400.73,-457.5"/>
</g>
<!-- GE&#45;&gt;DDB -->
<g id="edge13" class="edge"><title>GE&#45;&gt;DDB</title>
<path fill="none" stroke="#5b6577" d="M2146.78,-597.85C2155.94,-594.962 2165.23,-591.958 2174,-589 2261.94,-559.343 2284.12,-552.179 2370,-517 2392.42,-507.816 2416.55,-497.156 2438.32,-487.245"/>
<polygon fill="#5b6577" stroke="#5b6577" points="2439.86,-490.392 2447.49,-483.05 2436.94,-484.027 2439.86,-490.392"/>
</g>
<!-- EXP -->
<g id="node14" class="node"><title>EXP</title>
<polygon fill="#e2efda" stroke="#1f3864" points="2632,-636 2388,-636 2388,-598 2632,-598 2632,-636"/>
<text text-anchor="middle" x="2510" y="-624.8" font-family="Helvetica,sans-Serif" font-size="9.00">S3 exports &#160;[cdn]</text>
<text text-anchor="middle" x="2510" y="-614.8" font-family="Helvetica,sans-Serif" font-size="9.00">uk&#45;clearing&#45;advisor&#45;exports&#45;REPLACE_ACCOUNT_ID</text>
<text text-anchor="middle" x="2510" y="-604.8" font-family="Helvetica,sans-Serif" font-size="9.00">1&#45;day lifecycle</text>
</g>
<!-- GE&#45;&gt;EXP -->
<g id="edge14" class="edge"><title>GE&#45;&gt;EXP</title>
<path fill="none" stroke="#5b6577" d="M2173.08,-617C2232.54,-617 2311.42,-617 2377.8,-617"/>
<polygon fill="#5b6577" stroke="#5b6577" points="2377.92,-620.5 2387.92,-617 2377.92,-613.5 2377.92,-620.5"/>
<text text-anchor="middle" x="2281" y="-619.6" font-family="Helvetica,sans-Serif" font-size="8.00">PutObject + presigned GET (1h)</text>
</g>
<!-- GE&#45;&gt;CW -->
<g id="edge24" class="edge"><title>GE&#45;&gt;CW</title>
<path fill="none" stroke="#5b6577" d="M1990.57,-620.72C1957.58,-616.955 1923.27,-606.086 1902,-580 1811,-468.396 1813.97,-369.962 1902,-256 1922.22,-229.824 1955.06,-217.07 1987.2,-211.187"/>
<polygon fill="#5b6577" stroke="#5b6577" points="1987.83,-214.631 1997.14,-209.575 1986.7,-207.722 1987.83,-214.631"/>
</g>
<!-- ART -->
<g id="node16" class="node"><title>ART</title>
<polygon fill="#e2efda" stroke="#1f3864" points="1813.5,-398 1566.5,-398 1566.5,-360 1813.5,-360 1813.5,-398"/>
<text text-anchor="middle" x="1690" y="-386.8" font-family="Helvetica,sans-Serif" font-size="9.00">S3 artifacts</text>
<text text-anchor="middle" x="1690" y="-376.8" font-family="Helvetica,sans-Serif" font-size="9.00">uk&#45;clearing&#45;advisor&#45;artifacts&#45;REPLACE_ACCOUNT_ID</text>
<text text-anchor="middle" x="1690" y="-366.8" font-family="Helvetica,sans-Serif" font-size="9.00">Lambda zips + provisioning</text>
</g>
<!-- ART&#45;&gt;SC -->
<g id="edge15" class="edge"><title>ART&#45;&gt;SC</title>
<path fill="none" stroke="#5b6577" stroke-dasharray="5,2" d="M1813.6,-382.143C1871.77,-383.635 1939.97,-385.384 1992.94,-386.742"/>
<text text-anchor="middle" x="1902" y="-389.6" font-family="Helvetica,sans-Serif" font-size="8.00">code (S3)</text>
</g>
<!-- EBS -->
<g id="node17" class="node"><title>EBS</title>
<polygon fill="#eaf0fb" stroke="#1f3864" points="1366,-263 1190,-263 1190,-205 1366,-205 1366,-263"/>
<text text-anchor="middle" x="1278" y="-251.8" font-family="Helvetica,sans-Serif" font-size="9.00">EventBridge &#160;[scaling/compute]</text>
<text text-anchor="middle" x="1278" y="-241.8" font-family="Helvetica,sans-Serif" font-size="9.00">ScaleUp cron(0 4 13 8 ? 2026)</text>
<text text-anchor="middle" x="1278" y="-231.8" font-family="Helvetica,sans-Serif" font-size="9.00">ScaleDown cron(0 20 13 8 ? 2026)</text>
<text text-anchor="middle" x="1278" y="-221.8" font-family="Helvetica,sans-Serif" font-size="9.00">DailyScraper cron(0 7 * * ? *)</text>
<text text-anchor="middle" x="1278" y="-211.8" font-family="Helvetica,sans-Serif" font-size="9.00">WarmUp cron(0 5 13 8 ? 2026)</text>
</g>
<!-- SCHED -->
<g id="node18" class="node"><title>SCHED</title>
<polygon fill="#ddebf7" stroke="#1f3864" points="1788.5,-306 1591.5,-306 1591.5,-270 1788.5,-270 1788.5,-306"/>
<text text-anchor="middle" x="1690" y="-290.8" font-family="Helvetica,sans-Serif" font-size="9.00">Lambda ScheduleManager &#160;[scaling]</text>
<text text-anchor="middle" x="1690" y="-280.8" font-family="Helvetica,sans-Serif" font-size="9.00">PEAK=100 | UP 400/800 | BASE 50/100</text>
</g>
<!-- EBS&#45;&gt;SCHED -->
<g id="edge16" class="edge"><title>EBS&#45;&gt;SCHED</title>
<path fill="none" stroke="#5b6577" d="M1366.2,-245.485C1428.93,-253.747 1513.94,-264.943 1580.97,-273.772"/>
<polygon fill="#5b6577" stroke="#5b6577" points="1580.78,-277.276 1591.15,-275.112 1581.69,-270.336 1580.78,-277.276"/>
</g>
<!-- DS -->
<g id="node19" class="node"><title>DS</title>
<polygon fill="#ddebf7" stroke="#1f3864" points="1773.5,-198 1606.5,-198 1606.5,-162 1773.5,-162 1773.5,-198"/>
<text text-anchor="middle" x="1690" y="-182.8" font-family="Helvetica,sans-Serif" font-size="9.00">Lambda DailyScraper &#160;[compute]</text>
<text text-anchor="middle" x="1690" y="-172.8" font-family="Helvetica,sans-Serif" font-size="9.00">512MB/300s, global fetch</text>
</g>
<!-- EBS&#45;&gt;DS -->
<g id="edge17" class="edge"><title>EBS&#45;&gt;DS</title>
<path fill="none" stroke="#5b6577" d="M1366.2,-222.515C1433.88,-213.601 1527.49,-201.273 1596.48,-192.186"/>
<polygon fill="#5b6577" stroke="#5b6577" points="1597.01,-195.646 1606.47,-190.87 1596.1,-188.706 1597.01,-195.646"/>
</g>
<!-- WU -->
<g id="node20" class="node"><title>WU</title>
<polygon fill="#ddebf7" stroke="#1f3864" points="1780.5,-252 1599.5,-252 1599.5,-216 1780.5,-216 1780.5,-252"/>
<text text-anchor="middle" x="1690" y="-236.8" font-family="Helvetica,sans-Serif" font-size="9.00">Lambda WarmUp &#160;[compute]</text>
<text text-anchor="middle" x="1690" y="-226.8" font-family="Helvetica,sans-Serif" font-size="9.00">invokes SearchCourses __WARMUP__</text>
</g>
<!-- EBS&#45;&gt;WU -->
<g id="edge18" class="edge"><title>EBS&#45;&gt;WU</title>
<path fill="none" stroke="#5b6577" d="M1366.2,-234C1431.5,-234 1520.95,-234 1589.12,-234"/>
<polygon fill="#5b6577" stroke="#5b6577" points="1589.45,-237.5 1599.45,-234 1589.45,-230.5 1589.45,-237.5"/>
</g>
<!-- SCHED&#45;&gt;SC -->
<g id="edge19" class="edge"><title>SCHED&#45;&gt;SC</title>
<path fill="none" stroke="#5b6577" d="M1740.84,-306.079C1767.65,-315.428 1801.39,-326.606 1832,-335 1881.28,-348.515 1936.79,-360.828 1982.87,-370.273"/>
<polygon fill="#5b6577" stroke="#5b6577" points="1982.36,-373.741 1992.86,-372.305 1983.76,-366.881 1982.36,-373.741"/>
<text text-anchor="middle" x="1902" y="-369.6" font-family="Helvetica,sans-Serif" font-size="8.00">PutProvisionedConcurrency(100)</text>
</g>
<!-- SCHED&#45;&gt;APIGW -->
<g id="edge20" class="edge"><title>SCHED&#45;&gt;APIGW</title>
<path fill="none" stroke="#5b6577" d="M1591.47,-288.053C1542.92,-293.733 1488.23,-309.793 1457,-350.5 1412.63,-408.344 1500.12,-451.764 1580.25,-477.819"/>
<polygon fill="#5b6577" stroke="#5b6577" points="1579.39,-481.217 1589.98,-480.91 1581.51,-474.546 1579.39,-481.217"/>
<text text-anchor="middle" x="1485" y="-353.1" font-family="Helvetica,sans-Serif" font-size="8.00">UpdateStage throttle 400/800</text>
</g>
<!-- DS&#45;&gt;DDB -->
<g id="edge22" class="edge"><title>DS&#45;&gt;DDB</title>
<path fill="none" stroke="#5b6577" d="M1773.72,-196.713C1787.25,-199.86 1801.07,-203.327 1814,-207 2065.91,-278.538 2123.8,-312.785 2370,-402 2387.07,-408.184 2405.27,-414.903 2422.68,-421.394"/>
<polygon fill="#5b6577" stroke="#5b6577" points="2421.68,-424.753 2432.27,-424.972 2424.12,-418.195 2421.68,-424.753"/>
<text text-anchor="middle" x="2082" y="-330.6" font-family="Helvetica,sans-Serif" font-size="8.00">scan Contacts, write ChangeLog</text>
</g>
<!-- DS&#45;&gt;CW -->
<g id="edge25" class="edge"><title>DS&#45;&gt;CW</title>
<path fill="none" stroke="#5b6577" d="M1773.71,-186.15C1836.21,-190.798 1922.07,-197.182 1987.14,-202.021"/>
<polygon fill="#5b6577" stroke="#5b6577" points="1987.17,-205.533 1997.4,-202.784 1987.69,-198.552 1987.17,-205.533"/>
</g>
<!-- WU&#45;&gt;SC -->
<g id="edge21" class="edge"><title>WU&#45;&gt;SC</title>
<path fill="none" stroke="#5b6577" d="M1780.7,-243.075C1792.77,-247.214 1804.31,-252.988 1814,-261 1829.65,-273.943 1816.01,-290.478 1832,-303 1881.64,-341.878 1917.4,-294.453 1972,-326 1982.94,-332.321 1979.97,-340.312 1990,-348 1993,-350.297 1996.14,-352.499 1999.39,-354.607"/>
<polygon fill="#5b6577" stroke="#5b6577" points="1997.82,-357.754 2008.18,-359.966 2001.46,-351.775 1997.82,-357.754"/>
<text text-anchor="middle" x="1902" y="-328.6" font-family="Helvetica,sans-Serif" font-size="8.00">warm invoke</text>
</g>
<!-- SNS -->
<g id="node22" class="node"><title>SNS</title>
<polygon fill="#fce4d6" stroke="#1f3864" points="2612,-227 2408,-227 2408,-191 2612,-191 2612,-227"/>
<text text-anchor="middle" x="2510" y="-211.8" font-family="Helvetica,sans-Serif" font-size="9.00">SNS ClearingAdvisorAlerts &#160;[observability]</text>
<text text-anchor="middle" x="2510" y="-201.8" font-family="Helvetica,sans-Serif" font-size="9.00">email: your&#45;email@example.com</text>
</g>
<!-- CW&#45;&gt;SNS -->
<g id="edge26" class="edge"><title>CW&#45;&gt;SNS</title>
<path fill="none" stroke="#5b6577" d="M2166.66,-209C2232.73,-209 2325.52,-209 2397.84,-209"/>
<polygon fill="#5b6577" stroke="#5b6577" points="2397.9,-212.5 2407.9,-209 2397.9,-205.5 2397.9,-212.5"/>
<text text-anchor="middle" x="2281" y="-211.6" font-family="Helvetica,sans-Serif" font-size="8.00">alarm actions</text>
</g>
<!-- EC2&#45;&gt;COG -->
<g id="edge31" class="edge"><title>EC2&#45;&gt;COG</title>
<path fill="none" stroke="#5b6577" d="M1404.24,-82.0547C1470.33,-83.6667 1549.53,-85.5982 1607.6,-87.0147"/>
<polygon fill="#5b6577" stroke="#5b6577" points="1607.75,-90.5191 1617.83,-87.2641 1607.92,-83.5212 1607.75,-90.5191"/>
<text text-anchor="middle" x="1485" y="-88.6" font-family="Helvetica,sans-Serif" font-size="8.00">generic_oauth</text>
</g>
<!-- ROLE -->
<g id="node25" class="node"><title>ROLE</title>
<polygon fill="#fce1e4" stroke="#1f3864" points="1783,-52 1597,-52 1597,-16 1783,-16 1783,-52"/>
<text text-anchor="middle" x="1690" y="-36.8" font-family="Helvetica,sans-Serif" font-size="9.00">IAM instance role</text>
<text text-anchor="middle" x="1690" y="-26.8" font-family="Helvetica,sans-Serif" font-size="9.00">CloudWatchReadOnly + Logs Insights</text>
</g>
<!-- EC2&#45;&gt;ROLE -->
<g id="edge32" class="edge"><title>EC2&#45;&gt;ROLE</title>
<path fill="none" stroke="#5b6577" d="M1404.24,-65.254C1466.29,-58.4433 1539.9,-50.3648 1596.73,-44.1274"/>
</g>
<!-- ROLE&#45;&gt;CW -->
<g id="edge33" class="edge"><title>ROLE&#45;&gt;CW</title>
<path fill="none" stroke="#5b6577" d="M1783.21,-51.1653C1793.72,-54.0257 1804.18,-57.2923 1814,-61 1896.96,-92.3316 1985.53,-145.93 2036.94,-179.305"/>
<polygon fill="#5b6577" stroke="#5b6577" points="2035.2,-182.345 2045.49,-184.885 2039.03,-176.485 2035.2,-182.345"/>
<text text-anchor="middle" x="1902" y="-140.6" font-family="Helvetica,sans-Serif" font-size="8.00">GetMetricData + Logs Insights</text>
</g>
<!-- SM -->
<g id="node26" class="node"><title>SM</title>
<polygon fill="#fce1e4" stroke="#1f3864" points="850.5,-97 697.5,-97 697.5,-61 850.5,-61 850.5,-97"/>
<text text-anchor="middle" x="774" y="-81.8" font-family="Helvetica,sans-Serif" font-size="9.00">Secrets Manager</text>
<text text-anchor="middle" x="774" y="-71.8" font-family="Helvetica,sans-Serif" font-size="9.00">ClearingAdvisor&#45;GrafanaAdmin</text>
</g>
<!-- SM&#45;&gt;EC2 -->
<g id="edge34" class="edge"><title>SM&#45;&gt;EC2</title>
<path fill="none" stroke="#5b6577" stroke-dasharray="5,2" d="M850.698,-79C930.404,-79 1057.22,-79 1151.84,-79"/>
<text text-anchor="middle" x="1064" y="-81.6" font-family="Helvetica,sans-Serif" font-size="8.00">admin pw at boot</text>
</g>
</g>
</svg>
