<?xml version="1.0" encoding="UTF-8" standalone="no"?>
<!DOCTYPE svg PUBLIC "-//W3C//DTD SVG 1.1//EN"
 "http://www.w3.org/Graphics/SVG/1.1/DTD/svg11.dtd">
<!-- Generated by graphviz version 2.30.1 (20180828.1746)
 -->
<!-- Title: UKClearingAdvisor Pages: 1 -->
<svg width="2766pt" height="990pt"
 viewBox="0.00 0.00 2766.00 990.00" xmlns="http://www.w3.org/2000/svg" xmlns:xlink="http://www.w3.org/1999/xlink">
<g id="graph0" class="graph" transform="scale(1 1) rotate(0) translate(4 986)">
<title>UKClearingAdvisor</title>
<polygon fill="white" stroke="white" points="-4,5 -4,-986 2763,-986 2763,5 -4,5"/>
<text text-anchor="middle" x="1379" y="-962" font-family="Helvetica,sans-Serif" font-size="20.00">UK Clearing Advisor &#45; Developer Architecture Reference</text>
<text text-anchor="middle" x="1379" y="-940" font-family="Helvetica,sans-Serif" font-size="20.00">account REPLACE_ACCOUNT_ID &#160;| &#160;app+data eu&#45;west&#45;2 &#160;| &#160;WAF/CloudFront control plane us&#45;east&#45;1</text>
<g id="clust1" class="cluster"><title>cluster_edge</title>
<path fill="#f4f6f9" stroke="#1f3864" d="M224,-314C224,-314 974,-314 974,-314 980,-314 986,-320 986,-326 986,-326 986,-472 986,-472 986,-478 980,-484 974,-484 974,-484 224,-484 224,-484 218,-484 212,-478 212,-472 212,-472 212,-326 212,-326 212,-320 218,-314 224,-314"/>
<text text-anchor="middle" x="599" y="-464" font-family="Helvetica,sans-Serif" font-size="20.00">Edge &#160;[stacks: waf (us&#45;east&#45;1), cdn (eu&#45;west&#45;2), grafana&#45;front (us&#45;east&#45;1)]</text>
</g>
<g id="clust2" class="cluster"><title>cluster_app</title>
<path fill="#edeff4" stroke="#1f3864" d="M1578,-518C1578,-518 2738,-518 2738,-518 2744,-518 2750,-524 2750,-530 2750,-530 2750,-910 2750,-910 2750,-916 2744,-922 2738,-922 2738,-922 1578,-922 1578,-922 1572,-922 1566,-916 1566,-910 1566,-910 1566,-530 1566,-530 1566,-524 1572,-518 1578,-518"/>
<text text-anchor="middle" x="2158" y="-902" font-family="Helvetica,sans-Serif" font-size="20.00">Application &#160;[stacks: api, compute, data (eu&#45;west&#45;2, serverless)]</text>
</g>
<g id="clust3" class="cluster"><title>cluster_ops</title>
<path fill="#edeff4" stroke="#1f3864" d="M1154,-154C1154,-154 2734,-154 2734,-154 2740,-154 2746,-160 2746,-166 2746,-166 2746,-490 2746,-490 2746,-496 2740,-502 2734,-502 2734,-502 1154,-502 1154,-502 1148,-502 1142,-496 1142,-490 1142,-490 1142,-166 1142,-166 1142,-160 1148,-154 1154,-154"/>
<text text-anchor="middle" x="1944" y="-482" font-family="Helvetica,sans-Serif" font-size="20.00">Automation &amp; observability &#160;[stacks: scaling, observability, compute (eu&#45;west&#45;2)]</text>
</g>
<g id="clust4" class="cluster"><title>cluster_graf</title>
<path fill="#edeff4" stroke="#1f3864" d="M701,-8C701,-8 1787,-8 1787,-8 1793,-8 1799,-14 1799,-20 1799,-20 1799,-134 1799,-134 1799,-140 1793,-146 1787,-146 1787,-146 701,-146 701,-146 695,-146 689,-140 689,-134 689,-134 689,-20 689,-20 689,-14 695,-8 701,-8"/>
<text text-anchor="middle" x="1244" y="-126" font-family="Helvetica,sans-Serif" font-size="20.00">Grafana analytics &#160;[stack: grafana (eu&#45;west&#45;2)]</text>
</g>
<!-- UKU -->
<g id="node1" class="node"><title>UKU</title>
<ellipse fill="#fff2cc" stroke="#1f3864" cx="70" cy="-422" rx="70.0071" ry="19.6"/>
<text text-anchor="middle" x="70" y="-424.8" font-family="Helvetica,sans-Serif" font-size="9.00">UK students</text>
<text text-anchor="middle" x="70" y="-414.8" font-family="Helvetica,sans-Serif" font-size="9.00">(browser / mobile)</text>
</g>
<!-- WAF1 -->
<g id="node3" class="node"><title>WAF1</title>
<polygon fill="#fbe5e1" stroke="#1f3864" points="562.5,-446 353.5,-446 353.5,-398 562.5,-398 562.5,-446"/>
<text text-anchor="middle" x="458" y="-434.8" font-family="Helvetica,sans-Serif" font-size="9.00">WAF clearing&#45;advisor&#45;webacl &#160;[waf]</text>
<text text-anchor="middle" x="458" y="-424.8" font-family="Helvetica,sans-Serif" font-size="9.00">P1 GeoBlock !GB | P2 rate 1000/5min</text>
<text text-anchor="middle" x="458" y="-414.8" font-family="Helvetica,sans-Serif" font-size="9.00">P3 BotControl | P4 CommonRuleSet(count)</text>
<text text-anchor="middle" x="458" y="-404.8" font-family="Helvetica,sans-Serif" font-size="9.00">P5 KnownBadInputs | P6 SQLi</text>
</g>
<!-- UKU&#45;&gt;WAF1 -->
<g id="edge1" class="edge"><title>UKU&#45;&gt;WAF1</title>
<path fill="none" stroke="#5b6577" d="M140.009,-422C196.422,-422 277.343,-422 343.304,-422"/>
<polygon fill="#5b6577" stroke="#5b6577" points="343.339,-425.5 353.339,-422 343.339,-418.5 343.339,-425.5"/>
<text text-anchor="middle" x="181" y="-424.6" font-family="Helvetica,sans-Serif" font-size="8.00">HTTPS 443</text>
</g>
<!-- ADM -->
<g id="node2" class="node"><title>ADM</title>
<ellipse fill="#fff2cc" stroke="#1f3864" cx="70" cy="-186" rx="68.6788" ry="19.6"/>
<text text-anchor="middle" x="70" y="-188.8" font-family="Helvetica,sans-Serif" font-size="9.00">Admin / analyst</text>
<text text-anchor="middle" x="70" y="-178.8" font-family="Helvetica,sans-Serif" font-size="9.00">(UK or allowed IP)</text>
</g>
<!-- WAF2 -->
<g id="node5" class="node"><title>WAF2</title>
<polygon fill="#fbe5e1" stroke="#1f3864" points="594.5,-380 321.5,-380 321.5,-322 594.5,-322 594.5,-380"/>
<text text-anchor="middle" x="458" y="-368.8" font-family="Helvetica,sans-Serif" font-size="9.00">WAF grafana&#45;webacl &#160;[grafana&#45;front]</text>
<text text-anchor="middle" x="458" y="-358.8" font-family="Helvetica,sans-Serif" font-size="9.00">default BLOCK</text>
<text text-anchor="middle" x="458" y="-348.8" font-family="Helvetica,sans-Serif" font-size="9.00">P1 allow geo GB | P2 allow IPSet</text>
<text text-anchor="middle" x="458" y="-338.8" font-family="Helvetica,sans-Serif" font-size="9.00">grafana&#45;allowed&#45;ips</text>
<text text-anchor="middle" x="458" y="-328.8" font-family="Helvetica,sans-Serif" font-size="9.00">(REPLACE_ALLOWED_CIDR, REPLACE_ALLOWED_CIDR_2)</text>
</g>
<!-- ADM&#45;&gt;WAF2 -->
<g id="edge33" class="edge"><title>ADM&#45;&gt;WAF2</title>
<path fill="none" stroke="#5b6577" d="M108.714,-202.121C171.276,-228.864 297.744,-282.924 379.835,-318.015"/>
<polygon fill="#5b6577" stroke="#5b6577" points="378.552,-321.273 389.123,-321.985 381.303,-314.836 378.552,-321.273"/>
<text text-anchor="middle" x="181" y="-242.6" font-family="Helvetica,sans-Serif" font-size="8.00">HTTPS 443</text>
</g>
<!-- COG -->
<g id="node28" class="node"><title>COG</title>
<polygon fill="#fce1e4" stroke="#1f3864" points="1770,-108 1626,-108 1626,-70 1770,-70 1770,-108"/>
<text text-anchor="middle" x="1698" y="-96.8" font-family="Helvetica,sans-Serif" font-size="9.00">Cognito user pool</text>
<text text-anchor="middle" x="1698" y="-86.8" font-family="Helvetica,sans-Serif" font-size="9.00">REPLACE_USER_POOL_ID</text>
<text text-anchor="middle" x="1698" y="-76.8" font-family="Helvetica,sans-Serif" font-size="9.00">client 6025... &#160;(OAuth login)</text>
</g>
<!-- ADM&#45;&gt;COG -->
<g id="edge36" class="edge"><title>ADM&#45;&gt;COG</title>
<path fill="none" stroke="#5b6577" stroke-dasharray="5,2" d="M118.993,-172.405C191.546,-153.084 333.775,-120 457,-120 457,-120 457,-120 1285,-120 1399.99,-120 1532.53,-107.843 1615.55,-98.7552"/>
<polygon fill="#5b6577" stroke="#5b6577" points="1616.12,-102.214 1625.67,-97.6352 1615.35,-95.2561 1616.12,-102.214"/>
<text text-anchor="middle" x="774" y="-122.6" font-family="Helvetica,sans-Serif" font-size="8.00">OAuth redirect</text>
</g>
<!-- CF1 -->
<g id="node4" class="node"><title>CF1</title>
<polygon fill="#ddebf7" stroke="#1f3864" points="877,-446 671,-446 671,-398 877,-398 877,-446"/>
<text text-anchor="middle" x="774" y="-434.8" font-family="Helvetica,sans-Serif" font-size="9.00">CloudFront app &#160;[cdn]</text>
<text text-anchor="middle" x="774" y="-424.8" font-family="Helvetica,sans-Serif" font-size="9.00">REPLACE_APP_DIST_ID</text>
<text text-anchor="middle" x="774" y="-414.8" font-family="Helvetica,sans-Serif" font-size="9.00">REPLACE_APP_CF.cloudfront.net</text>
<text text-anchor="middle" x="774" y="-404.8" font-family="Helvetica,sans-Serif" font-size="9.00">geo whitelist GB | 403&#45;&gt;geo&#45;blocked.html</text>
</g>
<!-- WAF1&#45;&gt;CF1 -->
<g id="edge2" class="edge"><title>WAF1&#45;&gt;CF1</title>
<path fill="none" stroke="#5b6577" stroke-dasharray="5,2" d="M562.686,-422C597.43,-422 636.128,-422 670.761,-422"/>
<text text-anchor="middle" x="633" y="-424.6" font-family="Helvetica,sans-Serif" font-size="8.00">associate</text>
</g>
<!-- S3SITE -->
<g id="node16" class="node"><title>S3SITE</title>
<polygon fill="#e2efda" stroke="#1f3864" points="1811,-716 1585,-716 1585,-678 1811,-678 1811,-716"/>
<text text-anchor="middle" x="1698" y="-704.8" font-family="Helvetica,sans-Serif" font-size="9.00">S3 static site &#160;[cdn]</text>
<text text-anchor="middle" x="1698" y="-694.8" font-family="Helvetica,sans-Serif" font-size="9.00">uk&#45;clearing&#45;advisor&#45;site&#45;REPLACE_ACCOUNT_ID</text>
<text text-anchor="middle" x="1698" y="-684.8" font-family="Helvetica,sans-Serif" font-size="9.00">private + OAC (vanilla frontend)</text>
</g>
<!-- CF1&#45;&gt;S3SITE -->
<g id="edge3" class="edge"><title>CF1&#45;&gt;S3SITE</title>
<path fill="none" stroke="#5b6577" d="M817.356,-446.041C884.243,-483.002 1019.35,-553.627 1142,-593 1287.19,-639.611 1460.86,-667.976 1574.78,-683.059"/>
<polygon fill="#5b6577" stroke="#5b6577" points="1574.56,-686.56 1584.93,-684.389 1575.47,-679.62 1574.56,-686.56"/>
<text text-anchor="middle" x="1284" y="-659.6" font-family="Helvetica,sans-Serif" font-size="8.00">default | CachingOptimized</text>
</g>
<!-- APIGW -->
<g id="node7" class="node"><title>APIGW</title>
<polygon fill="#eaf0fb" stroke="#1f3864" points="1798,-660 1598,-660 1598,-582 1798,-582 1798,-660"/>
<text text-anchor="middle" x="1698" y="-648.8" font-family="Helvetica,sans-Serif" font-size="9.00">API Gateway HTTP API &#160;[api]</text>
<text text-anchor="middle" x="1698" y="-638.8" font-family="Helvetica,sans-Serif" font-size="9.00">id REPLACE_API_ID &#160;| &#160;stage $default</text>
<text text-anchor="middle" x="1698" y="-628.8" font-family="Helvetica,sans-Serif" font-size="9.00">POST /search &#160;GET /subjects /universities</text>
<text text-anchor="middle" x="1698" y="-618.8" font-family="Helvetica,sans-Serif" font-size="9.00">/scholarships /export /health</text>
<text text-anchor="middle" x="1698" y="-608.8" font-family="Helvetica,sans-Serif" font-size="9.00">throttle burst100/rate50 (baseline)</text>
<text text-anchor="middle" x="1698" y="-598.8" font-family="Helvetica,sans-Serif" font-size="9.00">access logs 7d</text>
<text text-anchor="middle" x="1698" y="-588.8" font-family="Helvetica,sans-Serif" font-size="9.00">CORS locked to app CloudFront origin</text>
</g>
<!-- CF1&#45;&gt;APIGW -->
<g id="edge4" class="edge"><title>CF1&#45;&gt;APIGW</title>
<path fill="none" stroke="#5b6577" d="M877.305,-446.013C950.853,-463.129 1052.43,-486.472 1142,-506 1296.57,-539.7 1475.89,-576.428 1587.91,-599.09"/>
<polygon fill="#5b6577" stroke="#5b6577" points="1587.37,-602.551 1597.87,-601.103 1588.76,-595.69 1587.37,-602.551"/>
<text text-anchor="middle" x="1284" y="-582.6" font-family="Helvetica,sans-Serif" font-size="8.00">/api/* | CachingDisabled</text>
<text text-anchor="middle" x="1284" y="-573.6" font-family="Helvetica,sans-Serif" font-size="8.00">ApiGeoOriginRequestPolicy (CloudFront&#45;Viewer + device)</text>
<text text-anchor="middle" x="1284" y="-564.6" font-family="Helvetica,sans-Serif" font-size="8.00">ApiRewriteFunction strips /api</text>
</g>
<!-- CF2 -->
<g id="node6" class="node"><title>CF2</title>
<polygon fill="#ddebf7" stroke="#1f3864" points="866.5,-371 681.5,-371 681.5,-323 866.5,-323 866.5,-371"/>
<text text-anchor="middle" x="774" y="-359.8" font-family="Helvetica,sans-Serif" font-size="9.00">CloudFront Grafana &#160;[grafana&#45;front]</text>
<text text-anchor="middle" x="774" y="-349.8" font-family="Helvetica,sans-Serif" font-size="9.00">REPLACE_GRAFANA_DIST_ID</text>
<text text-anchor="middle" x="774" y="-339.8" font-family="Helvetica,sans-Serif" font-size="9.00">REPLACE_GRAFANA_CF.cloudfront.net</text>
<text text-anchor="middle" x="774" y="-329.8" font-family="Helvetica,sans-Serif" font-size="9.00">trusted default cert</text>
</g>
<!-- WAF2&#45;&gt;CF2 -->
<g id="edge34" class="edge"><title>WAF2&#45;&gt;CF2</title>
<path fill="none" stroke="#5b6577" stroke-dasharray="5,2" d="M594.899,-349.269C624.07,-348.897 654.231,-348.513 681.255,-348.169"/>
<text text-anchor="middle" x="633" y="-351.6" font-family="Helvetica,sans-Serif" font-size="8.00">associate</text>
</g>
<!-- EC2 -->
<g id="node27" class="node"><title>EC2</title>
<polygon fill="#daeef3" stroke="#1f3864" points="1410,-92 1158,-92 1158,-34 1410,-34 1410,-92"/>
<text text-anchor="middle" x="1284" y="-80.8" font-family="Helvetica,sans-Serif" font-size="9.00">EC2 t3.small REPLACE_INSTANCE_ID</text>
<text text-anchor="middle" x="1284" y="-70.8" font-family="Helvetica,sans-Serif" font-size="9.00">nginx :80 (X&#45;Origin&#45;Verify) &#45;&gt; Grafana :3000</text>
<text text-anchor="middle" x="1284" y="-60.8" font-family="Helvetica,sans-Serif" font-size="9.00">EIP REPLACE_GRAFANA_EIP | SSM</text>
<text text-anchor="middle" x="1284" y="-50.8" font-family="Helvetica,sans-Serif" font-size="9.00">SG REPLACE_SG_ID:</text>
<text text-anchor="middle" x="1284" y="-40.8" font-family="Helvetica,sans-Serif" font-size="9.00">80&lt;&#45;CloudFront PL, 443&lt;&#45;REPLACE_ALLOWED_CIDR</text>
</g>
<!-- CF2&#45;&gt;EC2 -->
<g id="edge35" class="edge"><title>CF2&#45;&gt;EC2</title>
<path fill="none" stroke="#5b6577" d="M818.312,-322.786C908.771,-272.214 1117.97,-155.26 1221.99,-97.106"/>
<polygon fill="#5b6577" stroke="#5b6577" points="1223.79,-100.109 1230.82,-92.1741 1220.38,-93.9989 1223.79,-100.109"/>
<text text-anchor="middle" x="1064" y="-225.6" font-family="Helvetica,sans-Serif" font-size="8.00">HTTP 80 + X&#45;Origin&#45;Verify secret</text>
</g>
<!-- SC -->
<g id="node8" class="node"><title>SC</title>
<polygon fill="#ddebf7" stroke="#1f3864" points="2250.5,-584 2073.5,-584 2073.5,-526 2250.5,-526 2250.5,-584"/>
<text text-anchor="middle" x="2162" y="-572.8" font-family="Helvetica,sans-Serif" font-size="9.00">Lambda SearchCourses &#160;[compute]</text>
<text text-anchor="middle" x="2162" y="-562.8" font-family="Helvetica,sans-Serif" font-size="9.00">node22 512MB/10s, X&#45;Ray</text>
<text text-anchor="middle" x="2162" y="-552.8" font-family="Helvetica,sans-Serif" font-size="9.00">alias &#39;live&#39; &#45;&gt; latest version</text>
<text text-anchor="middle" x="2162" y="-542.8" font-family="Helvetica,sans-Serif" font-size="9.00">checks X&#45;Origin&#45;Verify secret</text>
<text text-anchor="middle" x="2162" y="-532.8" font-family="Helvetica,sans-Serif" font-size="9.00">role: SearchCoursesRole</text>
</g>
<!-- APIGW&#45;&gt;SC -->
<g id="edge5" class="edge"><title>APIGW&#45;&gt;SC</title>
<path fill="none" stroke="#5b6577" d="M1798.11,-606.841C1876.39,-595.658 1985.06,-580.134 2063.04,-568.994"/>
<polygon fill="#5b6577" stroke="#5b6577" points="2063.95,-572.4 2073.35,-567.521 2062.96,-565.47 2063.95,-572.4"/>
<text text-anchor="middle" x="1931" y="-602.6" font-family="Helvetica,sans-Serif" font-size="8.00">POST /search</text>
</g>
<!-- GS -->
<g id="node9" class="node"><title>GS</title>
<polygon fill="#ddebf7" stroke="#1f3864" points="2244.5,-752 2079.5,-752 2079.5,-714 2244.5,-714 2244.5,-752"/>
<text text-anchor="middle" x="2162" y="-740.8" font-family="Helvetica,sans-Serif" font-size="9.00">Lambda GetSubjects &#160;[compute]</text>
<text text-anchor="middle" x="2162" y="-730.8" font-family="Helvetica,sans-Serif" font-size="9.00">128MB/5s</text>
<text text-anchor="middle" x="2162" y="-720.8" font-family="Helvetica,sans-Serif" font-size="9.00">checks X&#45;Origin&#45;Verify</text>
</g>
<!-- APIGW&#45;&gt;GS -->
<g id="edge6" class="edge"><title>APIGW&#45;&gt;GS</title>
<path fill="none" stroke="#5b6577" d="M1798.14,-645.813C1866.14,-662.736 1958.46,-685.523 2040,-705 2049.52,-707.273 2059.46,-709.62 2069.38,-711.943"/>
<polygon fill="#5b6577" stroke="#5b6577" points="2068.74,-715.388 2079.28,-714.255 2070.34,-708.572 2068.74,-715.388"/>
</g>
<!-- GU -->
<g id="node10" class="node"><title>GU</title>
<polygon fill="#ddebf7" stroke="#1f3864" points="2251,-640 2073,-640 2073,-602 2251,-602 2251,-640"/>
<text text-anchor="middle" x="2162" y="-628.8" font-family="Helvetica,sans-Serif" font-size="9.00">Lambda GetUniversities &#160;[compute]</text>
<text text-anchor="middle" x="2162" y="-618.8" font-family="Helvetica,sans-Serif" font-size="9.00">256MB/10s</text>
<text text-anchor="middle" x="2162" y="-608.8" font-family="Helvetica,sans-Serif" font-size="9.00">checks X&#45;Origin&#45;Verify</text>
</g>
<!-- APIGW&#45;&gt;GU -->
<g id="edge7" class="edge"><title>APIGW&#45;&gt;GU</title>
<path fill="none" stroke="#5b6577" d="M1798.11,-621C1876.26,-621 1984.71,-621 2062.66,-621"/>
<polygon fill="#5b6577" stroke="#5b6577" points="2062.97,-624.5 2072.97,-621 2062.97,-617.5 2062.97,-624.5"/>
</g>
<!-- GSCH -->
<g id="node11" class="node"><title>GSCH</title>
<polygon fill="#ddebf7" stroke="#1f3864" points="2253.5,-696 2070.5,-696 2070.5,-658 2253.5,-658 2253.5,-696"/>
<text text-anchor="middle" x="2162" y="-684.8" font-family="Helvetica,sans-Serif" font-size="9.00">Lambda GetScholarships &#160;[compute]</text>
<text text-anchor="middle" x="2162" y="-674.8" font-family="Helvetica,sans-Serif" font-size="9.00">256MB/10s (GSI SubjectIndex)</text>
<text text-anchor="middle" x="2162" y="-664.8" font-family="Helvetica,sans-Serif" font-size="9.00">checks X&#45;Origin&#45;Verify</text>
</g>
<!-- APIGW&#45;&gt;GSCH -->
<g id="edge8" class="edge"><title>APIGW&#45;&gt;GSCH</title>
<path fill="none" stroke="#5b6577" d="M1798.11,-633.013C1875.38,-642.379 1982.25,-655.333 2059.99,-664.757"/>
<polygon fill="#5b6577" stroke="#5b6577" points="2059.93,-668.275 2070.28,-666.004 2060.78,-661.326 2059.93,-668.275"/>
</g>
<!-- GE -->
<g id="node12" class="node"><title>GE</title>
<polygon fill="#ddebf7" stroke="#1f3864" points="2253,-818 2071,-818 2071,-770 2253,-770 2253,-818"/>
<text text-anchor="middle" x="2162" y="-806.8" font-family="Helvetica,sans-Serif" font-size="9.00">Lambda GenerateExport &#160;[compute]</text>
<text text-anchor="middle" x="2162" y="-796.8" font-family="Helvetica,sans-Serif" font-size="9.00">1024MB/30s, X&#45;Ray</text>
<text text-anchor="middle" x="2162" y="-786.8" font-family="Helvetica,sans-Serif" font-size="9.00">zero&#45;dep xlsx+pdf</text>
<text text-anchor="middle" x="2162" y="-776.8" font-family="Helvetica,sans-Serif" font-size="9.00">checks X&#45;Origin&#45;Verify</text>
</g>
<!-- APIGW&#45;&gt;GE -->
<g id="edge9" class="edge"><title>APIGW&#45;&gt;GE</title>
<path fill="none" stroke="#5b6577" d="M1798.03,-656.352C1806.31,-660.289 1814.4,-664.513 1822,-669 1830.97,-674.295 1831.02,-678.725 1840,-684 1922.13,-732.244 1949.49,-731.32 2040,-761 2046.83,-763.239 2053.91,-765.449 2061.06,-767.601"/>
<polygon fill="#5b6577" stroke="#5b6577" points="2060.25,-771.013 2070.84,-770.495 2062.24,-764.301 2060.25,-771.013"/>
</g>
<!-- HLTH -->
<g id="node13" class="node"><title>HLTH</title>
<polygon fill="#ddebf7" stroke="#1f3864" points="2251.5,-884 2072.5,-884 2072.5,-836 2251.5,-836 2251.5,-884"/>
<text text-anchor="middle" x="2162" y="-872.8" font-family="Helvetica,sans-Serif" font-size="9.00">Lambda Health &#160;[compute]</text>
<text text-anchor="middle" x="2162" y="-862.8" font-family="Helvetica,sans-Serif" font-size="9.00">128MB/5s</text>
<text text-anchor="middle" x="2162" y="-852.8" font-family="Helvetica,sans-Serif" font-size="9.00">no secret check (external monitors)</text>
<text text-anchor="middle" x="2162" y="-842.8" font-family="Helvetica,sans-Serif" font-size="9.00">DynamoDB connectivity check</text>
</g>
<!-- APIGW&#45;&gt;HLTH -->
<g id="edge10" class="edge"><title>APIGW&#45;&gt;HLTH</title>
<path fill="none" stroke="#5b6577" d="M1798.09,-650.157C1806.89,-655.445 1815.07,-661.672 1822,-669 1839.67,-687.687 1823.32,-704.424 1840,-724 1904.85,-800.1 1946.82,-790.759 2040,-827 2047.36,-829.862 2055.06,-832.575 2062.86,-835.124"/>
<polygon fill="#5b6577" stroke="#5b6577" points="2061.81,-838.464 2072.4,-838.151 2063.93,-831.792 2061.81,-838.464"/>
<text text-anchor="middle" x="1931" y="-821.6" font-family="Helvetica,sans-Serif" font-size="8.00">GET /health</text>
</g>
<!-- DDB -->
<g id="node14" class="node"><title>DDB</title>
<polygon fill="#e4dfec" stroke="#1f3864" points="2719,-680 2525,-680 2521,-676 2521,-622 2715,-622 2719,-626 2719,-680"/>
<polyline fill="none" stroke="#1f3864" points="2715,-676 2521,-676 "/>
<polyline fill="none" stroke="#1f3864" points="2715,-676 2715,-622 "/>
<polyline fill="none" stroke="#1f3864" points="2715,-676 2719,-680 "/>
<text text-anchor="middle" x="2620" y="-668.8" font-family="Helvetica,sans-Serif" font-size="9.00">DynamoDB 8 tables &#160;[data]</text>
<text text-anchor="middle" x="2620" y="-658.8" font-family="Helvetica,sans-Serif" font-size="9.00">UniversityContacts, SubjectDefaults,</text>
<text text-anchor="middle" x="2620" y="-648.8" font-family="Helvetica,sans-Serif" font-size="9.00">ClearingCache, QueryCache, RateLimits,</text>
<text text-anchor="middle" x="2620" y="-638.8" font-family="Helvetica,sans-Serif" font-size="9.00">ChangeLog, CUGRankings, Scholarships</text>
<text text-anchor="middle" x="2620" y="-628.8" font-family="Helvetica,sans-Serif" font-size="9.00">on&#45;demand | TTL | PITR | SSE</text>
</g>
<!-- SC&#45;&gt;DDB -->
<g id="edge11" class="edge"><title>SC&#45;&gt;DDB</title>
<path fill="none" stroke="#5b6577" d="M2250.71,-566.936C2314.68,-576.369 2403.24,-590.939 2480,-609 2492.61,-611.968 2505.76,-615.437 2518.73,-619.086"/>
<polygon fill="#5b6577" stroke="#5b6577" points="2518.02,-622.523 2528.6,-621.907 2519.94,-615.793 2518.02,-622.523"/>
<text text-anchor="middle" x="2391" y="-620.6" font-family="Helvetica,sans-Serif" font-size="8.00">read Contacts/SubjectDefaults/CUG</text>
<text text-anchor="middle" x="2391" y="-611.6" font-family="Helvetica,sans-Serif" font-size="8.00">rw ClearingCache/QueryCache/RateLimits</text>
</g>
<!-- CW -->
<g id="node24" class="node"><title>CW</title>
<polygon fill="#fce4d6" stroke="#1f3864" points="2284,-292 2040,-292 2040,-244 2284,-244 2284,-292"/>
<text text-anchor="middle" x="2162" y="-280.8" font-family="Helvetica,sans-Serif" font-size="9.00">CloudWatch &#160;[observability]</text>
<text text-anchor="middle" x="2162" y="-270.8" font-family="Helvetica,sans-Serif" font-size="9.00">ns ClearingAdvisor | Logs Insights</text>
<text text-anchor="middle" x="2162" y="-260.8" font-family="Helvetica,sans-Serif" font-size="9.00">8 alarms (incl. SearchDuration p99) | dashboards:</text>
<text text-anchor="middle" x="2162" y="-250.8" font-family="Helvetica,sans-Serif" font-size="9.00">Operations, ResultsDay</text>
</g>
<!-- SC&#45;&gt;CW -->
<g id="edge27" class="edge"><title>SC&#45;&gt;CW</title>
<path fill="none" stroke="#5b6577" d="M2073.39,-542.93C2020.42,-530.628 1957.24,-505.847 1924.5,-456 1877.34,-384.191 1967.54,-347.162 2040,-301 2042.35,-299.504 2044.76,-298.076 2047.23,-296.711"/>
<polygon fill="#5b6577" stroke="#5b6577" points="2049.07,-299.704 2056.39,-292.047 2045.89,-293.467 2049.07,-299.704"/>
<text text-anchor="middle" x="1931" y="-449.6" font-family="Helvetica,sans-Serif" font-size="8.00">PutMetricData + logs</text>
<text text-anchor="middle" x="1931" y="-440.6" font-family="Helvetica,sans-Serif" font-size="8.00">(geo, device, UA)</text>
</g>
<!-- GU&#45;&gt;DDB -->
<g id="edge12" class="edge"><title>GU&#45;&gt;DDB</title>
<path fill="none" stroke="#5b6577" d="M2251.19,-626.802C2325.3,-631.678 2431.52,-638.666 2510.77,-643.88"/>
<polygon fill="#5b6577" stroke="#5b6577" points="2510.58,-647.374 2520.79,-644.539 2511.04,-640.39 2510.58,-647.374"/>
</g>
<!-- GSCH&#45;&gt;DDB -->
<g id="edge13" class="edge"><title>GSCH&#45;&gt;DDB</title>
<path fill="none" stroke="#5b6577" d="M2253.64,-671.832C2327.46,-667.623 2431.92,-661.667 2510.25,-657.201"/>
<polygon fill="#5b6577" stroke="#5b6577" points="2510.85,-660.672 2520.64,-656.608 2510.45,-653.683 2510.85,-660.672"/>
</g>
<!-- GE&#45;&gt;DDB -->
<g id="edge14" class="edge"><title>GE&#45;&gt;DDB</title>
<path fill="none" stroke="#5b6577" d="M2253.01,-769.999C2263.48,-767.045 2273.99,-764.006 2284,-761 2365.86,-736.414 2458.09,-705.923 2525.02,-683.283"/>
<polygon fill="#5b6577" stroke="#5b6577" points="2526.35,-686.525 2534.7,-680.001 2524.11,-679.895 2526.35,-686.525"/>
</g>
<!-- EXP -->
<g id="node15" class="node"><title>EXP</title>
<polygon fill="#e2efda" stroke="#1f3864" points="2742,-813 2498,-813 2498,-775 2742,-775 2742,-813"/>
<text text-anchor="middle" x="2620" y="-801.8" font-family="Helvetica,sans-Serif" font-size="9.00">S3 exports &#160;[cdn]</text>
<text text-anchor="middle" x="2620" y="-791.8" font-family="Helvetica,sans-Serif" font-size="9.00">uk&#45;clearing&#45;advisor&#45;exports&#45;REPLACE_ACCOUNT_ID</text>
<text text-anchor="middle" x="2620" y="-781.8" font-family="Helvetica,sans-Serif" font-size="9.00">1&#45;day lifecycle</text>
</g>
<!-- GE&#45;&gt;EXP -->
<g id="edge16" class="edge"><title>GE&#45;&gt;EXP</title>
<path fill="none" stroke="#5b6577" d="M2253.09,-794C2320.04,-794 2412.39,-794 2487.56,-794"/>
<polygon fill="#5b6577" stroke="#5b6577" points="2487.58,-797.5 2497.58,-794 2487.58,-790.5 2487.58,-797.5"/>
<text text-anchor="middle" x="2391" y="-796.6" font-family="Helvetica,sans-Serif" font-size="8.00">PutObject + presigned GET (1h)</text>
</g>
<!-- GE&#45;&gt;CW -->
<g id="edge28" class="edge"><title>GE&#45;&gt;CW</title>
<path fill="none" stroke="#5b6577" d="M2070.99,-803.037C2021.73,-802.475 1964.3,-791.901 1931,-752 1805.13,-601.179 1805.13,-460.821 1931,-310 1955.28,-280.913 1992.37,-267.411 2029.78,-262.011"/>
<polygon fill="#5b6577" stroke="#5b6577" points="2030.32,-265.47 2039.81,-260.752 2029.45,-258.525 2030.32,-265.47"/>
</g>
<!-- HLTH&#45;&gt;DDB -->
<g id="edge15" class="edge"><title>HLTH&#45;&gt;DDB</title>
<path fill="none" stroke="#5b6577" d="M2251.62,-866.76C2320.68,-867.343 2415.38,-857.294 2480,-807 2495.7,-794.777 2486.56,-782.286 2498,-766 2518.97,-736.146 2548.57,-707.847 2573.25,-686.791"/>
<polygon fill="#5b6577" stroke="#5b6577" points="2575.66,-689.33 2581.07,-680.217 2571.16,-683.972 2575.66,-689.33"/>
<text text-anchor="middle" x="2391" y="-867.6" font-family="Helvetica,sans-Serif" font-size="8.00">GetItem (liveness check)</text>
</g>
<!-- ART -->
<g id="node17" class="node"><title>ART</title>
<polygon fill="#e2efda" stroke="#1f3864" points="1821.5,-564 1574.5,-564 1574.5,-526 1821.5,-526 1821.5,-564"/>
<text text-anchor="middle" x="1698" y="-552.8" font-family="Helvetica,sans-Serif" font-size="9.00">S3 artifacts</text>
<text text-anchor="middle" x="1698" y="-542.8" font-family="Helvetica,sans-Serif" font-size="9.00">uk&#45;clearing&#45;advisor&#45;artifacts&#45;REPLACE_ACCOUNT_ID</text>
<text text-anchor="middle" x="1698" y="-532.8" font-family="Helvetica,sans-Serif" font-size="9.00">Lambda zips + provisioning</text>
</g>
<!-- ART&#45;&gt;SC -->
<g id="edge17" class="edge"><title>ART&#45;&gt;SC</title>
<path fill="none" stroke="#5b6577" stroke-dasharray="5,2" d="M1821.59,-547.654C1900.86,-549.369 2002.14,-551.561 2073.36,-553.103"/>
<text text-anchor="middle" x="1931" y="-554.6" font-family="Helvetica,sans-Serif" font-size="8.00">code (S3)</text>
</g>
<!-- EBS -->
<g id="node18" class="node"><title>EBS</title>
<polygon fill="#eaf0fb" stroke="#1f3864" points="1401.5,-448 1166.5,-448 1166.5,-370 1401.5,-370 1401.5,-448"/>
<text text-anchor="middle" x="1284" y="-436.8" font-family="Helvetica,sans-Serif" font-size="9.00">EventBridge Rules &#160;[scaling/compute]</text>
<text text-anchor="middle" x="1284" y="-426.8" font-family="Helvetica,sans-Serif" font-size="9.00">ScaleUp cron(0 4 13 8 ? 2026)</text>
<text text-anchor="middle" x="1284" y="-416.8" font-family="Helvetica,sans-Serif" font-size="9.00">ScaleDown cron(0 20 13 8 ? 2026)</text>
<text text-anchor="middle" x="1284" y="-406.8" font-family="Helvetica,sans-Serif" font-size="9.00">DailyScraper cron(0 7 * * ? *)</text>
<text text-anchor="middle" x="1284" y="-396.8" font-family="Helvetica,sans-Serif" font-size="9.00">ResultsDayScraper cron(0/15 4&#45;20 13 8 ? 2026)</text>
<text text-anchor="middle" x="1284" y="-386.8" font-family="Helvetica,sans-Serif" font-size="9.00">WarmUp cron(0 5 13 8 ? 2026)</text>
<text text-anchor="middle" x="1284" y="-376.8" font-family="Helvetica,sans-Serif" font-size="9.00">CostReporter cron(0 6 * * ? *)</text>
</g>
<!-- SCHED -->
<g id="node20" class="node"><title>SCHED</title>
<polygon fill="#ddebf7" stroke="#1f3864" points="1796.5,-400 1599.5,-400 1599.5,-364 1796.5,-364 1796.5,-400"/>
<text text-anchor="middle" x="1698" y="-384.8" font-family="Helvetica,sans-Serif" font-size="9.00">Lambda ScheduleManager &#160;[scaling]</text>
<text text-anchor="middle" x="1698" y="-374.8" font-family="Helvetica,sans-Serif" font-size="9.00">PEAK=100 | UP 400/800 | BASE 50/100</text>
</g>
<!-- EBS&#45;&gt;SCHED -->
<g id="edge18" class="edge"><title>EBS&#45;&gt;SCHED</title>
<path fill="none" stroke="#5b6577" d="M1401.71,-439.591C1449.78,-447.952 1505.84,-452.228 1556,-442 1591.09,-434.844 1628.27,-418.621 1655.64,-404.847"/>
<polygon fill="#5b6577" stroke="#5b6577" points="1657.59,-407.778 1664.89,-400.095 1654.39,-401.551 1657.59,-407.778"/>
</g>
<!-- DS -->
<g id="node21" class="node"><title>DS</title>
<polygon fill="#ddebf7" stroke="#1f3864" points="1822,-226 1574,-226 1574,-178 1822,-178 1822,-226"/>
<text text-anchor="middle" x="1698" y="-214.8" font-family="Helvetica,sans-Serif" font-size="9.00">Lambda DailyScraper &#160;[compute]</text>
<text text-anchor="middle" x="1698" y="-204.8" font-family="Helvetica,sans-Serif" font-size="9.00">512MB/300s, global fetch</text>
<text text-anchor="middle" x="1698" y="-194.8" font-family="Helvetica,sans-Serif" font-size="9.00">tightened open/closed&#45;phrase heuristic</text>
<text text-anchor="middle" x="1698" y="-184.8" font-family="Helvetica,sans-Serif" font-size="9.00">writes possibleStatusChange+lastAutomatedCheck</text>
</g>
<!-- EBS&#45;&gt;DS -->
<g id="edge19" class="edge"><title>EBS&#45;&gt;DS</title>
<path fill="none" stroke="#5b6577" d="M1336.97,-369.965C1391.44,-330.744 1480.8,-271.082 1566,-235 1570.67,-233.021 1575.49,-231.142 1580.4,-229.358"/>
<polygon fill="#5b6577" stroke="#5b6577" points="1581.63,-232.636 1589.92,-226.046 1579.33,-226.024 1581.63,-232.636"/>
</g>
<!-- WU -->
<g id="node22" class="node"><title>WU</title>
<polygon fill="#ddebf7" stroke="#1f3864" points="1788.5,-346 1607.5,-346 1607.5,-310 1788.5,-310 1788.5,-346"/>
<text text-anchor="middle" x="1698" y="-330.8" font-family="Helvetica,sans-Serif" font-size="9.00">Lambda WarmUp &#160;[compute]</text>
<text text-anchor="middle" x="1698" y="-320.8" font-family="Helvetica,sans-Serif" font-size="9.00">invokes SearchCourses __WARMUP__</text>
</g>
<!-- EBS&#45;&gt;WU -->
<g id="edge20" class="edge"><title>EBS&#45;&gt;WU</title>
<path fill="none" stroke="#5b6577" d="M1401.83,-432.008C1410.66,-433.205 1419.46,-434.23 1428,-435 1456.33,-437.554 1534.68,-453.825 1556,-435 1582.86,-411.286 1541.68,-381.317 1566,-355 1574.7,-345.58 1585.75,-338.968 1597.72,-334.391"/>
<polygon fill="#5b6577" stroke="#5b6577" points="1599.11,-337.618 1607.5,-331.141 1596.9,-330.975 1599.11,-337.618"/>
</g>
<!-- CR -->
<g id="node23" class="node"><title>CR</title>
<polygon fill="#ddebf7" stroke="#1f3864" points="1796,-292 1600,-292 1600,-244 1796,-244 1796,-292"/>
<text text-anchor="middle" x="1698" y="-280.8" font-family="Helvetica,sans-Serif" font-size="9.00">Lambda CostReporter &#160;[compute]</text>
<text text-anchor="middle" x="1698" y="-270.8" font-family="Helvetica,sans-Serif" font-size="9.00">128MB/30s</text>
<text text-anchor="middle" x="1698" y="-260.8" font-family="Helvetica,sans-Serif" font-size="9.00">tag&#45;filtered ce:GetCostAndUsage</text>
<text text-anchor="middle" x="1698" y="-250.8" font-family="Helvetica,sans-Serif" font-size="9.00">publishes ClearingAdvisor/DailyCostUSD</text>
</g>
<!-- EBS&#45;&gt;CR -->
<g id="edge21" class="edge"><title>EBS&#45;&gt;CR</title>
<path fill="none" stroke="#5b6577" d="M1401.55,-425.777C1410.48,-426.668 1419.38,-427.43 1428,-428 1456.38,-429.877 1535.11,-447.308 1556,-428 1576.79,-408.784 1547.73,-322.629 1566,-301 1572.82,-292.921 1581.31,-286.663 1590.65,-281.837"/>
<polygon fill="#5b6577" stroke="#5b6577" points="1592.21,-284.974 1599.85,-277.636 1589.3,-278.606 1592.21,-284.974"/>
</g>
<!-- SCHR -->
<g id="node19" class="node"><title>SCHR</title>
<polygon fill="#fbe5e1" stroke="#1f3864" points="1395.5,-236 1172.5,-236 1172.5,-178 1395.5,-178 1395.5,-236"/>
<text text-anchor="middle" x="1284" y="-224.8" font-family="Helvetica,sans-Serif" font-size="9.00">EventBridge Scheduler &#160;[compute]</text>
<text text-anchor="middle" x="1284" y="-214.8" font-family="Helvetica,sans-Serif" font-size="9.00">ClearingAdvisor&#45;RampUpScraper</text>
<text text-anchor="middle" x="1284" y="-204.8" font-family="Helvetica,sans-Serif" font-size="9.00">rate(1 hour) | EndDate 2026&#45;08&#45;12</text>
<text text-anchor="middle" x="1284" y="-194.8" font-family="Helvetica,sans-Serif" font-size="9.00">real end date (Scheduler, not cron()) so it</text>
<text text-anchor="middle" x="1284" y="-184.8" font-family="Helvetica,sans-Serif" font-size="9.00">stops automatically before ResultsDayScraper</text>
</g>
<!-- SCHR&#45;&gt;DS -->
<g id="edge22" class="edge"><title>SCHR&#45;&gt;DS</title>
<path fill="none" stroke="#5b6577" d="M1395.68,-205.657C1447.4,-205.029 1509.4,-204.277 1563.68,-203.618"/>
<polygon fill="#5b6577" stroke="#5b6577" points="1563.77,-207.117 1573.73,-203.496 1563.68,-200.118 1563.77,-207.117"/>
<text text-anchor="middle" x="1492" y="-208.6" font-family="Helvetica,sans-Serif" font-size="8.00">invoke (hourly, 24 Jul&#45;12 Aug)</text>
</g>
<!-- SCHED&#45;&gt;SC -->
<g id="edge23" class="edge"><title>SCHED&#45;&gt;SC</title>
<path fill="none" stroke="#5b6577" d="M1715.74,-400.163C1740.36,-425.666 1788.96,-471.582 1840,-495 1878.98,-512.884 1983.98,-530.584 2063.37,-542.072"/>
<polygon fill="#5b6577" stroke="#5b6577" points="2063.01,-545.557 2073.41,-543.511 2064.01,-538.627 2063.01,-545.557"/>
<text text-anchor="middle" x="1931" y="-537.6" font-family="Helvetica,sans-Serif" font-size="8.00">PutProvisionedConcurrency(100)</text>
</g>
<!-- SCHED&#45;&gt;APIGW -->
<g id="edge24" class="edge"><title>SCHED&#45;&gt;APIGW</title>
<path fill="none" stroke="#5b6577" d="M1599.34,-369.752C1551.13,-369.684 1496.61,-379.565 1464,-417.5 1410.12,-480.174 1500.49,-522.607 1566,-573 1573.1,-578.459 1580.87,-583.34 1588.99,-587.695"/>
<polygon fill="#5b6577" stroke="#5b6577" points="1587.41,-590.819 1597.91,-592.218 1590.58,-584.575 1587.41,-590.819"/>
<text text-anchor="middle" x="1492" y="-420.1" font-family="Helvetica,sans-Serif" font-size="8.00">UpdateStage throttle 400/800</text>
</g>
<!-- DS&#45;&gt;DDB -->
<g id="edge26" class="edge"><title>DS&#45;&gt;DDB</title>
<path fill="none" stroke="#5b6577" d="M1812.22,-226.141C1815.72,-228.806 1819,-231.75 1822,-235 1852.03,-267.548 1811.56,-299.059 1840,-333 1888.76,-391.178 2411.23,-539.867 2480,-572 2508.23,-585.191 2538.43,-602.005 2563.45,-616.728"/>
<polygon fill="#5b6577" stroke="#5b6577" points="2561.68,-619.749 2572.07,-621.839 2565.25,-613.728 2561.68,-619.749"/>
<text text-anchor="middle" x="2162" y="-505.6" font-family="Helvetica,sans-Serif" font-size="8.00">scan+update Contacts, write ChangeLog</text>
</g>
<!-- DS&#45;&gt;CW -->
<g id="edge29" class="edge"><title>DS&#45;&gt;CW</title>
<path fill="none" stroke="#5b6577" d="M1822.2,-219.6C1886.27,-228.753 1964.61,-239.944 2029.81,-249.258"/>
<polygon fill="#5b6577" stroke="#5b6577" points="2029.35,-252.728 2039.74,-250.677 2030.34,-245.798 2029.35,-252.728"/>
</g>
<!-- WU&#45;&gt;SC -->
<g id="edge25" class="edge"><title>WU&#45;&gt;SC</title>
<path fill="none" stroke="#5b6577" d="M1788.66,-334.451C1801.18,-338.88 1812.87,-345.433 1822,-355 1854.7,-389.246 1805.88,-427.174 1840,-460 1898.8,-516.566 1950.72,-444.306 2022,-484 2033.04,-490.146 2029.83,-498.507 2040,-506 2047.65,-511.637 2056.04,-516.742 2064.73,-521.338"/>
<polygon fill="#5b6577" stroke="#5b6577" points="2063.36,-524.567 2073.86,-525.944 2066.51,-518.317 2063.36,-524.567"/>
<text text-anchor="middle" x="1931" y="-486.6" font-family="Helvetica,sans-Serif" font-size="8.00">warm invoke</text>
</g>
<!-- CE -->
<g id="node26" class="node"><title>CE</title>
<polygon fill="#fff2cc" stroke="#1f3864" points="2251,-372 2061,-372 2061,-316 2251,-316 2263,-344 2251,-372"/>
<text text-anchor="middle" x="2162" y="-366.8" font-family="Helvetica,sans-Serif" font-size="9.00">Cost Explorer (billing API)</text>
<text text-anchor="middle" x="2162" y="-356.8" font-family="Helvetica,sans-Serif" font-size="9.00">ce:GetCostAndUsage</text>
<text text-anchor="middle" x="2162" y="-346.8" font-family="Helvetica,sans-Serif" font-size="9.00">filter tag Application=uk&#45;clearing&#45;advisor</text>
<text text-anchor="middle" x="2162" y="-336.8" font-family="Helvetica,sans-Serif" font-size="9.00">(all 9 stacks tagged; account also runs</text>
<text text-anchor="middle" x="2162" y="-326.8" font-family="Helvetica,sans-Serif" font-size="9.00">unrelated workloads, so untagged totals</text>
<text text-anchor="middle" x="2162" y="-316.8" font-family="Helvetica,sans-Serif" font-size="9.00">would be meaningless)</text>
</g>
<!-- CR&#45;&gt;CE -->
<g id="edge30" class="edge"><title>CR&#45;&gt;CE</title>
<path fill="none" stroke="#5b6577" d="M1796.13,-283.978C1870.47,-296.208 1973.06,-313.084 2050.53,-325.827"/>
<polygon fill="#5b6577" stroke="#5b6577" points="2050.37,-329.348 2060.81,-327.518 2051.51,-322.441 2050.37,-329.348"/>
<text text-anchor="middle" x="1931" y="-322.6" font-family="Helvetica,sans-Serif" font-size="8.00">GetCostAndUsage (yesterday, tag&#45;filtered)</text>
</g>
<!-- CR&#45;&gt;CW -->
<g id="edge31" class="edge"><title>CR&#45;&gt;CW</title>
<path fill="none" stroke="#5b6577" d="M1796.13,-268C1863.88,-268 1955.08,-268 2029.35,-268"/>
<polygon fill="#5b6577" stroke="#5b6577" points="2029.71,-271.5 2039.71,-268 2029.71,-264.5 2029.71,-271.5"/>
<text text-anchor="middle" x="1931" y="-270.6" font-family="Helvetica,sans-Serif" font-size="8.00">PutMetricData DailyCostUSD</text>
</g>
<!-- SNS -->
<g id="node25" class="node"><title>SNS</title>
<polygon fill="#fce4d6" stroke="#1f3864" points="2722,-286 2518,-286 2518,-250 2722,-250 2722,-286"/>
<text text-anchor="middle" x="2620" y="-270.8" font-family="Helvetica,sans-Serif" font-size="9.00">SNS ClearingAdvisorAlerts &#160;[observability]</text>
<text text-anchor="middle" x="2620" y="-260.8" font-family="Helvetica,sans-Serif" font-size="9.00">email: your&#45;email@example.com</text>
</g>
<!-- CW&#45;&gt;SNS -->
<g id="edge32" class="edge"><title>CW&#45;&gt;SNS</title>
<path fill="none" stroke="#5b6577" d="M2284,-268C2353.4,-268 2439.89,-268 2507.61,-268"/>
<polygon fill="#5b6577" stroke="#5b6577" points="2507.88,-271.5 2517.88,-268 2507.88,-264.5 2507.88,-271.5"/>
<text text-anchor="middle" x="2391" y="-270.6" font-family="Helvetica,sans-Serif" font-size="8.00">alarm actions</text>
</g>
<!-- EC2&#45;&gt;COG -->
<g id="edge37" class="edge"><title>EC2&#45;&gt;COG</title>
<path fill="none" stroke="#5b6577" d="M1410.01,-70.8891C1476.69,-75.097 1556.83,-80.1546 1615.46,-83.8544"/>
<polygon fill="#5b6577" stroke="#5b6577" points="1615.58,-87.3688 1625.78,-84.5057 1616.02,-80.3827 1615.58,-87.3688"/>
<text text-anchor="middle" x="1492" y="-82.6" font-family="Helvetica,sans-Serif" font-size="8.00">generic_oauth</text>
</g>
<!-- ROLE -->
<g id="node29" class="node"><title>ROLE</title>
<polygon fill="#fce1e4" stroke="#1f3864" points="1791,-52 1605,-52 1605,-16 1791,-16 1791,-52"/>
<text text-anchor="middle" x="1698" y="-36.8" font-family="Helvetica,sans-Serif" font-size="9.00">IAM instance role</text>
<text text-anchor="middle" x="1698" y="-26.8" font-family="Helvetica,sans-Serif" font-size="9.00">CloudWatchReadOnly + Logs Insights</text>
</g>
<!-- EC2&#45;&gt;ROLE -->
<g id="edge38" class="edge"><title>EC2&#45;&gt;ROLE</title>
<path fill="none" stroke="#5b6577" d="M1410.01,-54.2006C1472.76,-49.7838 1547.44,-44.5276 1604.88,-40.4841"/>
</g>
<!-- ROLE&#45;&gt;CW -->
<g id="edge39" class="edge"><title>ROLE&#45;&gt;CW</title>
<path fill="none" stroke="#5b6577" d="M1791.04,-50.6666C1801.64,-53.621 1812.16,-57.046 1822,-61 1938.42,-107.787 2060.59,-192.628 2121.53,-237.799"/>
<polygon fill="#5b6577" stroke="#5b6577" points="2119.61,-240.731 2129.72,-243.902 2123.79,-235.119 2119.61,-240.731"/>
<text text-anchor="middle" x="1931" y="-170.6" font-family="Helvetica,sans-Serif" font-size="8.00">GetMetricData + Logs Insights</text>
</g>
<!-- SM -->
<g id="node30" class="node"><title>SM</title>
<polygon fill="#fce1e4" stroke="#1f3864" points="850.5,-81 697.5,-81 697.5,-45 850.5,-45 850.5,-81"/>
<text text-anchor="middle" x="774" y="-65.8" font-family="Helvetica,sans-Serif" font-size="9.00">Secrets Manager</text>
<text text-anchor="middle" x="774" y="-55.8" font-family="Helvetica,sans-Serif" font-size="9.00">ClearingAdvisor&#45;GrafanaAdmin</text>
</g>
<!-- SM&#45;&gt;EC2 -->
<g id="edge40" class="edge"><title>SM&#45;&gt;EC2</title>
<path fill="none" stroke="#5b6577" stroke-dasharray="5,2" d="M850.504,-63C931.487,-63 1061.42,-63 1157.76,-63"/>
<text text-anchor="middle" x="1064" y="-65.6" font-family="Helvetica,sans-Serif" font-size="8.00">admin pw at boot</text>
</g>
</g>
</svg>
